<svg width="100" height="100" viewBox="0 0 100 100" fill="none" xmlns="http://www.w3.org/2000/svg">
<path d="M89.4104 94.3103C90.2838 94.6034 91.3218 94.5287 92.0939 94.023C92.8281 93.546 93.1952 92.7184 93.2015 91.9138C93.2015 91.5172 93.1002 91.0345 92.8724 90.6437C95.6445 85.7586 93.0243 79.1379 87.6825 76.1322C87.2901 75.7241 86.8724 75.3161 86.4294 74.9597C86.4673 74.9195 86.5053 74.885 86.537 74.8448C86.9104 74.4597 86.7901 73.8046 86.1952 73.6666C85.7332 73.5977 85.3091 73.4655 84.9167 73.2816C84.8597 73.1896 84.7964 73.0977 84.7142 73.0115C79.8154 68.0115 79.6825 61.0345 78.7142 54.7471C77.8597 49.2241 76.4294 43.6666 73.6129 38.6724C68.3281 29.2988 58.2015 23.7873 46.499 24.862C35.7078 25.8563 26.6066 32.3333 23.8724 41.9942C21.1509 51.6092 24.7585 62.0862 33.6825 67.9655C39.8408 72.023 47.3344 73.7988 54.3724 76.1551C61.7901 78.6379 67.48 82.0689 72.6889 87.4483C72.8218 87.5862 72.98 87.6437 73.1445 87.6494C73.1952 87.6781 73.2585 87.7011 73.3218 87.7126C76.6445 92.1896 83.98 98.2414 89.0433 94.4597C89.1572 94.4195 89.2838 94.3621 89.4104 94.3103ZM84.923 76.4942C85.8408 77.0402 86.7205 77.7069 87.518 78.4598C85.2521 79.4138 83.1572 80.8965 81.1002 82.1207C79.942 82.8103 78.7015 83.4827 77.518 84.2184C78.442 83.2414 79.3281 82.2471 80.2395 81.3161C81.8091 79.7126 83.3661 78.1034 84.923 76.4942ZM32.6699 62.8793C28.8661 59.3103 26.8281 54.362 26.5939 49.431C26.2395 41.8793 30.0433 35.0632 36.5749 31.2069C33.2901 33.6896 30.499 36.8218 28.7078 39.9253C24.6066 47.023 27.2078 56.6034 33.0243 63.1839C32.904 63.0862 32.7838 62.9885 32.6699 62.8793ZM72.4357 83.5517C67.98 76.4655 56.8851 73.5 49.0749 71.0057C45.8534 69.977 42.5496 68.8735 39.4927 67.3965C30.0623 61.5862 23.9357 48.6207 30.1256 39.4425C32.923 35.2931 37.442 31.0287 42.5116 28.7643C43.0813 28.6149 43.6572 28.4827 44.2458 28.3735C56.1256 26.1494 67.0433 31.8908 71.9737 41.7414C74.8534 47.4942 75.6889 53.6954 76.5623 59.8908C77.2648 64.862 78.3471 69.6954 81.6509 73.7126C80.7205 74.546 79.8471 75.6437 79.0306 76.5919C75.6635 72.1724 71.6699 68.0919 68.0243 63.8563C64.2775 59.5 60.7901 53.908 56.0116 50.431C55.4294 50.0057 54.6192 50.523 54.9673 51.1609C57.5243 55.908 62.3661 59.8678 66.037 63.9195C70.0496 68.3506 73.8091 73.0919 78.1002 77.2988C78.1572 77.3563 78.2205 77.3908 78.2838 77.4195C78.2838 77.4195 78.2838 77.4253 78.2775 77.4253C77.4926 78.2414 76.518 79.1034 75.5559 80.0057C75.5243 79.885 75.461 79.7701 75.3218 79.6666C72.8787 77.8965 70.3408 76.3391 68.1762 74.2643C66.1445 72.3161 64.3977 70.1437 62.5433 68.0517C58.8218 63.8506 54.9927 59.0517 50.037 55.9885C49.423 55.6092 48.5116 56.385 48.98 56.9483C52.7521 61.477 57.7332 65.1896 61.6889 69.6207C65.3534 73.7241 69.0939 78.2873 74.3851 80.7643C74.4863 80.8103 74.5876 80.8333 74.6952 80.8333C73.8281 81.7011 73.018 82.6034 72.4357 83.5517ZM73.2395 85.0689C73.1952 84.977 73.1572 84.8793 73.1129 84.7931C75.1129 83.6034 76.6762 81.4597 78.2142 79.9023L81.1889 76.8965C81.6319 76.4483 82.0686 76.0057 82.5116 75.5575C82.6635 75.4023 82.8154 75.2471 82.9737 75.0919C83.1509 75.1954 83.3344 75.2471 83.518 75.2586C83.461 75.4253 83.4737 75.6034 83.6002 75.7471C81.9927 77.4138 80.3787 79.0747 78.7775 80.7471C77.2395 82.3506 75.499 83.9195 74.0813 85.6437C73.8028 85.4483 73.5243 85.2586 73.2395 85.0689ZM75.7395 86.885C77.9673 86.0574 80.037 84.7184 82.0496 83.5919C84.2205 82.3793 86.6952 81.2414 88.6319 79.7011C88.9294 80.1092 89.2142 80.5345 89.5053 80.954C87.2142 82.3103 84.961 83.7356 82.7015 85.1264C81.0053 86.1724 79.2078 87.1666 77.6256 88.3678C76.999 87.8793 76.3724 87.3793 75.7395 86.885ZM78.8977 89.3506C80.5433 88.5402 82.1002 87.5517 83.6699 86.6379C84.9294 85.9023 86.1952 85.1609 87.4547 84.4253C88.0876 84.0574 88.7142 83.6896 89.3471 83.3218C90.018 83.1724 90.3471 82.885 90.3597 82.4712C90.404 82.4885 90.4294 82.5172 90.48 82.5345C90.499 82.5402 90.5116 82.5402 90.5306 82.546C91.1572 83.8735 91.499 85.2586 91.4357 86.6034C89.2965 87.2299 87.3028 88.3218 85.3028 89.2414C83.9483 89.862 82.5243 90.4368 81.2205 91.1609C80.4294 90.5689 79.6635 89.9483 78.8977 89.3506ZM87.7142 92.3103C87.2775 92.5747 87.1066 92.9598 87.1256 93.3391C87.1002 93.3563 87.0686 93.3678 87.0433 93.3793C85.8724 93.4885 84.5813 93.2011 83.4927 92.6207C83.1635 92.4483 82.8408 92.2529 82.5243 92.0517C83.6002 91.6322 84.6446 91.1264 85.6889 90.6781C87.4863 89.9023 89.423 89.2126 91.1445 88.2873C90.6572 89.7873 89.5813 91.1781 87.7142 92.3103Z" fill="white"/>
<path d="M89.461 34.2766C89.5242 33.7996 89.0622 33.4548 88.6445 33.2996C87.2268 32.7651 85.7521 34.041 84.5875 34.6789C83.2204 35.4318 81.8344 36.2421 80.8217 37.3858C80.2711 38.0122 80.7837 38.8168 81.6572 38.6904C83.3407 38.4433 84.8723 37.6789 86.347 36.926C87.7015 36.2306 89.2458 35.8226 89.461 34.2766Z" fill="white"/>
<path d="M74.4273 19.305C72.6615 18.9544 71.7248 20.3223 70.7248 21.4027C69.8134 22.3855 68.6235 23.4544 68.307 24.7418C68.1362 25.4257 68.8387 26.3108 69.6931 26.0004C71.0665 25.5004 72.0286 24.4544 73.1045 23.5579C74.2944 22.5694 75.7184 21.8682 75.4273 20.2073C75.3514 19.7935 74.864 19.3912 74.4273 19.305Z" fill="white"/>
<path d="M48.2844 8.42476C47.9869 10.4363 47.93 12.7753 48.6705 14.7179C49.3857 16.6029 52.1958 16.1949 52.392 14.2581C52.5692 12.5225 52.5249 10.7064 52.6009 8.95349C52.7085 6.75809 48.6199 6.17188 48.2844 8.42476Z" fill="white"/>
<path d="M26.2811 13.7937C24.8001 12.6902 21.9266 13.673 22.7115 15.6787C23.2684 17.104 24.5596 18.2305 25.5912 19.4029C26.4836 20.4201 27.5216 21.742 29.0026 22.0236C29.8127 22.1787 30.3697 21.7075 30.4709 21.0063C30.6545 19.7017 29.6545 18.3971 28.9456 17.3282C28.1671 16.1845 27.433 14.65 26.2811 13.7937Z" fill="white"/>
<path d="M19.2199 32.4717C19.568 32.4027 19.9224 32.0234 19.8844 31.6843C19.7325 30.4257 18.7389 29.5176 17.7515 28.6728C16.7768 27.8395 15.5363 26.7245 14.2072 26.4084C12.7199 26.0579 10.9351 26.9027 10.8844 28.4199C10.8465 29.4084 11.4794 30.2245 12.492 30.5464C12.8718 30.6671 13.2199 30.6153 13.5173 30.4831C14.2832 30.8337 15.0173 31.3739 15.7515 31.7015C16.8654 32.19 17.9541 32.7245 19.2199 32.4717Z" fill="white"/>
<path d="M8.35621 48.236C6.7233 48.1095 4.98279 48.0406 3.7233 49.098C2.76128 49.9026 3.00178 51.4888 4.14102 52.0463C4.38153 52.1612 4.62836 52.2589 4.89419 52.3107C5.41317 52.4199 6.01444 52.2819 6.45748 51.9773C7.26128 51.7647 8.43216 51.8566 9.18533 51.8624C10.3815 51.8681 11.3879 51.8394 12.4828 51.3337C13.179 51.0118 13.1474 50.2015 12.7106 49.7245C11.603 48.5348 9.97647 48.3624 8.35621 48.236Z" fill="white"/>
<path d="M14.902 66.2645C14.1045 67.4082 15.4463 69.1668 16.9336 68.661C18.2438 68.2185 19.4083 67.322 20.6425 66.7128C21.345 66.3679 22.8513 65.4771 22.2754 64.5461C20.8577 62.253 15.9336 64.7817 14.902 66.2645Z" fill="white"/>
<path d="M33.8952 82.9316C34.3193 82.15 34.699 81.3454 35.0471 80.5351C35.4522 79.5925 35.5787 79.0178 35.1104 78.081C35.0534 77.9718 34.9079 77.9489 34.7939 77.9661C33.6357 78.1098 33.2117 78.5695 32.5281 79.3856C31.9901 80.0351 31.4838 80.7075 31.0091 81.3971C29.8636 83.0695 32.9522 84.673 33.8952 82.9316Z" fill="white"/>
<path d="M49.863 80.333C49.806 80.0399 49.3946 79.9307 49.1351 80.0629C46.6478 81.3617 46.0402 85.1261 46.4136 87.4709C46.6921 89.2238 49.7744 88.764 49.7617 87.0571C49.7554 85.8387 49.5908 84.6606 49.7111 83.4307C49.8313 82.3789 50.0718 81.3847 49.863 80.333Z" fill="white"/>
<path d="M82.8626 52.6385C83.6917 53.0293 84.5841 52.8971 85.4955 52.9431C86.4638 52.9891 87.4005 53.2075 88.3246 53.4604C90.6031 54.0868 91.5841 50.6443 89.2929 50.265C87.3056 49.9374 83.8309 49.719 82.5018 51.4144C82.2107 51.7937 82.4195 52.4316 82.8626 52.6385Z" fill="white"/>
</svg>
