<svg width="109" height="121" viewBox="0 0 109 121" fill="none" xmlns="http://www.w3.org/2000/svg">
<path d="M52.6257 56.794C47.7008 54.6121 40.2582 55.1364 36.4099 56.3686C27.6987 59.1661 20.0277 67.2428 16.6742 75.2262C16.25 74.9699 15.8332 74.7161 15.4066 74.4665C15.0564 74.259 14.7432 74.3232 14.5291 74.506C14.2843 73.5071 13.5193 72.7349 12.5307 72.1726C12.1708 71.9693 11.6808 72.0166 11.349 72.2034C11.1929 72.2927 11.0125 72.4038 10.8149 72.5164C9.05383 72.2132 7.47171 72.954 7.06765 74.8487C6.32037 78.3251 11.6538 81.1836 13.9791 83.0851C23.8293 91.1592 33.138 99.8021 41.9236 108.891C42.5872 109.574 43.8831 109.432 44.4463 108.825C46.3061 106.829 48.2326 104.902 50.2433 103.043C50.8972 102.438 50.7417 101.281 50.0325 100.703C49.2591 100.072 48.488 99.4349 47.717 98.7974C55.1312 93.6787 60.8314 84.1071 63.9276 76.4052C65.5597 72.3521 65.0474 68.7041 63.037 65.6062C66.5109 66.5605 70.2236 66.0407 73.8844 64.1644C81.172 60.4378 88.642 53.9399 93.466 47.4342C94.2236 48.2038 94.9933 48.9625 95.7509 49.7321C96.3129 50.3033 97.477 50.2282 97.9476 49.6723C99.5991 47.7015 103.323 44.9428 103.188 42.105C103.045 39.0816 97.5212 36.3384 95.2852 34.5596C86.9222 27.916 78.9286 20.9088 71.3114 13.5177C70.5938 12.823 69.5169 13.0506 68.8744 13.5761C68.7344 13.291 68.3819 13.0903 68.0627 13.312C66.7617 14.2206 65.6533 15.2657 64.6666 16.4831C64.0072 17.2916 62.9968 18.3409 63.1128 19.4691C63.2367 20.6457 64.468 21.4611 65.3478 22.1903C65.5208 22.335 65.6938 22.4798 65.8644 22.6314C59.7063 27.5555 54.1372 34.1019 51.0806 41.0576C48.7066 46.5286 49.5932 51.9131 52.6257 56.794ZM12.0211 76.4096C11.8873 76.5296 11.7512 76.6563 11.615 76.7831C11.3053 76.4379 11.0174 76.0777 10.7563 75.6888C11.5926 75.954 12.2552 75.4888 12.541 74.8448C12.7514 75.0484 12.9472 75.2697 13.1236 75.5221C12.7213 75.7676 12.3687 76.0839 12.0211 76.4096ZM65.4715 19.1625C65.3674 18.259 66.0735 17.4594 66.7108 16.6431C67.0185 16.2425 67.3483 15.8497 67.6855 15.4595C67.6885 15.7799 67.7434 16.1414 67.8558 16.6221C66.8818 17.3574 65.921 18.1962 65.4715 19.1625ZM35.3736 60.1457C39.1236 58.3694 43.2925 57.5927 47.598 58.3088C50.226 58.7436 52.5521 60.1968 55.0326 60.8608C56.8766 62.6911 59.0737 64.5093 60.4698 66.6906C57.4452 77.8543 52.5489 87.6417 44.0715 95.7678C36.1158 89.1465 27.9971 82.3992 19.2616 76.8327C24.322 70.6919 27.5147 63.868 35.3736 60.1457ZM43.0148 105.217C38.1838 100.232 33.2167 95.3747 28.0405 90.7091C25.3448 88.2813 22.6005 85.8971 19.815 83.5591C18.4185 82.3888 17.0173 81.2321 15.6039 80.0862C14.902 79.5112 14.1905 78.9403 13.4765 78.3762C13.2865 78.2559 13.1038 78.1152 12.9284 77.9772C13.1514 77.6987 13.3694 77.4108 13.6076 77.1833C13.8748 76.9205 14.2746 76.6588 14.4995 76.3278C14.6463 76.2884 14.7581 76.1835 14.8059 76.0484C24.4473 85.3943 35.8272 93.4161 46.3314 101.942C45.1963 103.015 44.0883 104.106 43.0148 105.217ZM58.0797 80.405C56.1724 83.8743 53.9028 87.1471 51.3048 90.1746C49.3691 92.4325 47.0306 94.3733 45.0082 96.5475C44.9564 96.5063 44.9045 96.4652 44.855 96.4173C52.9198 88.495 59.0387 78.3263 60.7815 67.2418C61.1131 67.8304 61.3959 68.4398 61.5811 69.0906C62.6235 72.7891 59.7748 77.3245 58.0797 80.405ZM69.3278 19.8338C69.7712 19.0022 70.6601 18.6018 71.1458 17.8383C76.1711 22.6254 81.3374 27.2723 86.6979 31.7217C89.5104 34.054 92.3641 36.34 95.2834 38.558C95.8934 39.0169 99.5468 41.061 99.6939 41.8429C99.916 43.0466 98.0248 45.0847 96.6625 46.519C91.6793 41.5187 86.577 36.6208 81.3068 31.8687C78.5938 29.4196 75.8419 27.0099 73.0535 24.6329C72.307 23.9965 71.0294 23.2179 70.0361 22.4106C70.2092 21.78 69.6874 21.0481 69.0307 20.8388C69.0765 20.4977 69.1519 20.167 69.3278 19.8338ZM55.8311 38.753C59.1548 33.3439 63.4703 28.8404 68.0762 24.4548C68.254 24.5861 68.4292 24.7012 68.6118 24.819C70.2994 26.1758 72.2043 27.4346 73.2749 28.3757C79.5107 33.8492 85.5423 39.5242 91.3964 45.3493C83.287 53.233 68.5054 72.1465 57.0429 57.9221C51.8079 51.4263 51.8022 45.3117 55.8311 38.753Z" fill="white"/>
<path d="M57.7321 51.5491C58.2678 52.1947 59.6395 52.0257 59.4637 51.0665C58.9788 48.5154 57.9001 46.4463 58.28 43.7979C58.6969 40.927 60.347 38.2792 62.7165 36.509C62.8724 36.3969 62.7083 36.1564 62.5327 36.254C59.7831 37.7605 57.9613 39.8839 56.9974 42.7516C56.1313 45.3192 55.7628 49.1804 57.7321 51.5491Z" fill="white"/>
<path d="M44.1804 62.6802C39.1137 60.5471 31.0635 62.9549 28.93 67.6747C28.5 68.6327 29.8924 69.6267 30.6595 68.7954C32.5264 66.7792 33.7479 64.9682 36.5606 63.9173C38.9603 63.0246 41.4863 63.0432 44.0746 63.1674C44.3616 63.1776 44.4266 62.7825 44.1804 62.6802Z" fill="white"/>
</svg>
