<svg width="100" height="100" viewBox="0 0 100 100" fill="none" xmlns="http://www.w3.org/2000/svg">
<path d="M16.5904 72.4119C22.0821 80.2675 27.2569 88.8343 33.2404 96.2052C33.2623 96.2619 33.2896 96.3185 33.3279 96.3626C34.5573 97.9488 36.6174 100.523 38.6174 99.9064C39.8469 99.5287 40.9999 97.9362 41.9999 97.0802C43.6556 95.6639 45.3386 94.2917 47.0654 92.9887C51.6063 89.5582 56.4587 86.7257 61.6444 85.2968C61.7865 85.3031 61.9231 85.2968 62.0652 85.3031C64.2455 85.4227 66.3219 86.3291 68.4694 86.4739C70.0814 86.5809 71.2235 85.7563 71.382 83.912C74.7207 78.8197 77.595 73.5764 81.6769 69.1136C83.9009 66.6839 86.2943 64.4619 88.8353 62.4791C88.8735 62.454 88.9063 62.4288 88.9446 62.3973C92.1686 60.1628 95.5893 58.3122 99.163 56.8896C99.8788 56.6064 100.36 55.3978 99.6548 54.7369C98.4963 53.6542 97.4417 52.4583 96.2067 51.5833C96.2942 51.5519 96.3761 51.5078 96.469 51.47C96.7586 51.3567 96.8679 51.0861 96.8515 50.8217C96.939 50.7021 96.9936 50.5636 97.0264 50.4125C97.5291 50.2552 97.928 49.6446 97.5674 48.9963C97.3488 48.606 97.1357 48.2032 96.9171 47.8129C96.939 47.8129 96.9663 47.8066 96.9882 47.8129C97.3051 47.8255 97.398 47.3282 97.1412 47.152C96.9117 46.9946 96.6603 46.9065 96.3925 46.8624C95.9007 45.956 95.4253 45.0433 94.9445 44.1306C94.4527 42.6325 93.6166 41.2666 92.8625 39.8692C91.409 37.1814 89.8025 34.6007 88.2069 32.0199C84.9501 26.7577 81.6878 21.5018 78.4201 16.2459C75.524 11.5879 72.8792 6.05502 69.4039 1.95099C67.6826 -0.0821418 64.8302 -0.91302 63.2127 1.37189C59.3166 2.50491 55.6609 4.38697 52.5407 7.67271C51.3221 8.95679 49.956 10.4486 48.5954 12.0915C44.5244 16.548 41.0272 22.0935 39.3387 28.1173C34.3169 24.819 27.5301 25.1337 22.1204 26.5248C14.6615 28.4446 7.9621 33.0396 1.46493 37.4836C0.743625 37.9746 0.705375 39.0194 1.21903 39.7055C2.23541 41.0589 3.23539 42.4311 4.24084 43.797C2.60699 44.6027 1.51411 45.8616 0.257297 47.4856C0.0277925 47.7814 -0.114282 48.3291 0.120687 48.6878C5.45394 56.7385 11.0768 64.5312 16.5904 72.4119ZM51.1746 87.0278C48.1965 88.8343 45.355 90.9556 42.6392 93.2468C41.5572 94.1595 40.0709 95.9849 38.8524 96.5955C38.0491 96.9983 37.3114 96.9354 36.5956 96.6836C36.6065 96.6647 36.6229 96.6521 36.6338 96.6332C36.907 96.243 36.918 95.8024 36.6338 95.4058C36.6229 95.3932 36.612 95.3743 36.601 95.3617C37.1038 95.2044 37.5136 94.8393 37.8196 94.2602C38.2841 93.7189 38.7704 93.2027 39.2731 92.7055C40.4862 91.5158 41.8032 90.4835 43.1747 89.5519C45.5954 87.9153 48.191 86.6501 50.8304 85.5549C55.5297 83.6099 60.945 81.0228 66.0542 81.6019C66.1416 81.6271 66.2345 81.6586 66.3274 81.6837C61.0051 82.1684 55.9341 84.1386 51.1746 87.0278ZM64.9176 84.617C66.24 84.4156 67.5787 84.3086 68.9394 84.3086C69.076 84.51 69.2946 84.6359 69.5077 84.6296C68.4148 85.1898 66.5241 84.9065 64.9176 84.617ZM71.065 83.2825C70.9503 83.2448 70.8191 83.2448 70.6989 83.2825C71.0104 82.8356 71.3109 82.3887 71.6169 81.9418C71.4202 82.3887 71.2344 82.8356 71.065 83.2825ZM96.6002 55.2719C90.9828 57.796 85.7643 61.2895 81.1305 65.7775C78.748 68.0813 76.2343 70.8005 74.0431 73.7967C74.2508 73.3624 74.4639 72.9344 74.6879 72.5189C76.4147 69.3213 78.3928 66.3062 80.6113 63.5366C84.5129 58.6521 88.8899 54.9446 94.1139 52.4897C94.786 53.5913 95.6712 54.4473 96.6002 55.2719ZM95.2122 50.5447C95.0046 50.614 94.7969 50.6832 94.5947 50.7524C94.4035 50.7336 94.2232 50.8028 94.0866 50.9413C88.6877 53.0185 83.9883 57.3932 80.1523 62.1141C76.6059 66.4825 72.1852 72.5315 70.4913 78.6057C70.3984 78.4232 70.2891 78.2343 70.1743 78.0329C70.8792 74.9549 73.0213 71.4803 74.1524 69.422C75.9393 66.1929 77.9939 63.1652 80.2999 60.4082C82.4911 57.796 84.8954 55.423 87.4801 53.3458C89.1577 51.9988 91.7369 49.7201 94.1685 48.5557C94.5182 49.2166 94.8625 49.8838 95.2122 50.5447ZM50.7265 13.0545C51.5844 11.9656 52.4697 10.8514 53.3986 9.76249C55.8794 7.62235 58.557 5.81583 61.404 4.39956C62.4805 3.86453 63.7263 3.26025 65.0433 2.73781C65.4695 2.6308 65.9066 2.54267 66.3383 2.45455C66.311 2.4042 66.2837 2.35384 66.2509 2.30348C69.2618 3.74493 72.2563 10.4927 73.5787 12.6391C76.0759 16.6928 78.5677 20.7464 81.0704 24.8001C83.3927 28.5579 85.7315 32.2969 88.0211 36.0799C88.0539 36.1366 88.0866 36.1869 88.1194 36.2436C89.8899 40.0769 91.7369 43.8599 93.6658 47.5926C91.9172 48.5305 90.1249 50.1104 89.1249 50.8406C85.5512 53.4465 82.2671 56.5938 79.3764 60.1565C76.6059 63.5744 74.1688 67.3763 72.2399 71.4866C71.4749 73.1169 70.3328 75.2067 69.7809 77.2965C68.5459 74.9864 67.2345 72.7203 65.9449 70.4543C63.1034 65.4502 60.2018 60.4901 57.2401 55.5866C54.3931 50.872 51.4915 46.2078 48.5353 41.5876C46.202 37.9431 43.8359 33.4991 41.0053 30.1568C42.8906 23.4216 46.6501 18.216 50.7265 13.0545ZM39.978 30.7673C41.9616 34.6196 44.825 38.1886 47.0872 41.7261C49.7921 45.9623 52.4533 50.2426 55.0653 54.5543C57.6772 58.8661 60.24 63.2219 62.7591 67.6155C63.9012 69.6108 65.0378 71.6125 66.1635 73.6267C66.8356 74.8353 67.5077 76.0438 68.1744 77.2524C68.3984 77.6552 68.617 78.0581 68.841 78.4672C68.8574 78.5617 68.8847 78.6498 68.9121 78.7316C63.9176 70.3473 58.5679 62.2085 53.4205 53.9627C48.5025 46.0819 43.7375 37.9997 38.5792 30.3141C39.0382 30.4589 39.5081 30.61 39.978 30.7673ZM3.95123 39.0824C9.42656 35.3434 15.0221 31.6486 21.2024 29.7161C26.9837 27.9033 32.0711 28.4069 37.5573 30.0057C42.4643 38.5474 47.896 46.7365 53.0872 55.0453C58.251 63.31 63.2564 71.7573 68.5897 79.8835C58.0488 74.231 44.5135 78.0896 35.9344 86.5746C25.9455 70.1522 15.2735 54.3026 3.95123 39.0824ZM3.70533 45.9434C4.01134 45.4525 4.38838 44.9804 4.74357 44.502C15.3117 58.929 25.2952 73.91 34.6557 89.4071C35.1147 90.1688 35.9781 90.3639 36.5901 89.6967C40.7595 85.152 45.8632 82.0803 51.497 80.771C54.7866 80.0031 57.9067 80.0094 61.0051 80.4815C60.6171 80.5633 60.2291 80.6577 59.8357 80.7584C56.0106 81.7404 52.1746 83.163 48.5244 84.7932C45.3496 86.2095 42.2567 87.9279 39.5136 90.2821C38.3059 91.3207 35.5792 93.2845 35.0546 95.2925C29.7268 86.3291 23.0548 78.1147 17.1259 69.6738C14.115 65.3809 11.0987 61.1006 8.07139 56.8141C6.49764 54.5858 4.32281 52.3261 3.12611 49.8083L2.30098 48.6438C2.45398 47.5045 2.91846 46.6044 3.70533 45.9434Z" fill="white"/>
<path d="M49.6939 30.5459C51.7157 26.9328 53.9015 23.5212 56.7867 20.7579C59.9615 17.7114 63.4096 16.2447 67.1636 14.4697C68.2237 13.9661 67.8248 12.3232 66.6937 12.5058C58.9779 13.771 51.4316 21.8846 49.0218 30.2186C48.8797 30.6907 49.4699 30.9362 49.6939 30.5459Z" fill="white"/>
<path d="M51.7765 34.6065C51.6016 35.2422 52.3393 35.4814 52.6398 35.0282C54.9841 31.5096 56.9021 27.9595 59.9457 25.1332C63.0113 22.2818 66.4921 21.1928 69.8472 19.0527C70.3718 18.7191 70.1533 17.6868 69.5358 17.7309C62.5086 18.1715 53.8256 27.0468 51.7765 34.6065Z" fill="white"/>
<path d="M62.8593 53.3712C62.7008 53.9314 63.3893 54.416 63.7336 53.9565C65.9357 51.0611 67.6406 47.8194 70.1378 45.182C72.8974 42.2739 76.0612 40.7506 79.1049 38.4279C79.7934 37.8992 79.3617 36.6781 78.5421 36.8921C72.3946 38.4783 64.7827 46.4535 62.8593 53.3712Z" fill="white"/>
<path d="M66.3465 60.6904C66.3629 61.1688 67.0132 61.4772 67.2099 60.9611C70.0459 53.3762 76.8054 48.372 82.6359 44.1169C83.4774 43.5001 82.7397 42.0712 81.86 42.581C78.2316 44.6834 74.871 47.6859 71.9475 50.9213C69.7017 53.4139 66.2318 56.7689 66.3465 60.6904Z" fill="white"/>
<path d="M44.1518 50.6885C44.5999 50.5626 44.6819 49.9331 44.4087 49.568C42.2065 46.6726 39.977 43.8023 37.7093 40.976C36.5454 39.5283 35.294 37.3315 33.5454 36.7902C31.1247 36.0348 27.6384 37.4889 25.2997 38.0994C21.6385 39.0562 18.0757 40.3403 14.5676 41.8698C14.0484 42.0964 14.0047 42.77 14.4255 43.1476C15.3326 43.9533 16.2123 44.7716 17.1686 45.4892C20.6057 49.1211 23.7314 53.0174 26.5291 57.3544C26.6985 57.8768 26.857 58.4119 26.9882 58.9784C27.1084 59.5008 27.7641 59.2742 27.6821 58.7581C27.6603 58.6385 27.633 58.5189 27.6111 58.3993C27.6548 58.3867 27.6985 58.3741 27.7422 58.3489C32.8952 54.8492 38.3213 52.2936 44.1518 50.6885ZM21.5019 49.5303C20.3653 48.2777 19.1904 47.088 17.9883 45.9424C18.3161 45.8669 18.5402 45.3633 18.2451 45.0234C17.5238 44.1988 16.7369 43.4812 15.9391 42.77C16.1577 42.6755 16.3817 42.5811 16.6003 42.4867C19.103 46.3075 22.2341 49.2596 24.5073 53.0237C23.5401 51.8215 22.5347 50.6633 21.5019 49.5303ZM27.0592 56.2402C25.2887 50.7262 20.9117 45.8102 16.95 42.3356C21.5401 40.3654 26.857 38.2127 31.5455 38.1938C34.5946 38.1813 36.1356 41.0201 38.0754 43.4498C39.7202 45.5018 41.3322 47.5853 42.9387 49.675C40.3432 50.4367 37.7967 51.3683 35.3104 52.5454C34.2285 53.0615 33.1629 53.6091 32.1083 54.2008C31.2012 54.7107 29.1083 56.6494 28.163 56.6494C27.7532 56.6431 27.3925 56.4857 27.0592 56.2402Z" fill="white"/>
<path d="M49.5605 57.2476C50.0577 57.1406 50.0195 56.2656 49.5605 56.1272C43.3693 54.3018 33.4787 59.1171 30.0963 65.2857C29.9706 65.5123 30.222 65.8018 30.4187 65.6571C33.5388 63.3722 36.1508 60.697 39.6918 59.1989C42.9595 57.8267 46.2217 57.9715 49.5605 57.2476Z" fill="white"/>
<path d="M43.302 65.1043C46.1053 64.0657 48.985 63.9209 51.8265 63.1844C52.5642 62.9956 52.3183 61.8437 51.6626 61.7682C48.0397 61.3276 44.0015 62.8571 40.7119 64.4811C38.5753 65.5323 33.7994 67.4773 33.3459 70.5301C33.3076 70.8071 33.3787 71.0148 33.5754 71.1785C33.6901 71.2729 33.8049 71.3673 33.9196 71.4617C34.171 71.6695 34.5153 71.3233 34.4333 71.0085C33.8923 68.9439 42.3239 65.4694 43.302 65.1043Z" fill="white"/>
<path d="M37.6793 76.9553C37.5372 77.1568 37.7503 77.4023 37.9252 77.2386C40.8541 74.4816 43.854 72.0267 47.4441 70.5538C50.4605 69.3201 53.5096 69.2508 56.6134 68.5899C57.1981 68.464 57.2254 67.2995 56.6134 67.1988C49.9031 66.0973 41.7721 71.07 37.6793 76.9553Z" fill="white"/>
</svg>
