<svg width="1125" height="1109" viewBox="0 0 1125 1109" fill="none" xmlns="http://www.w3.org/2000/svg">
<path d="M581.723 67.03C562.84 87.6905 504.399 116.615 421.698 67.03C318.322 5.04858 145.694 -37.8681 66.1229 54.0339C-13.4517 145.94 -22.3311 315.456 61.3221 363.442C182.484 432.943 457.225 335.45 508.113 315.456C559 295.462 806.565 201.94 916.176 225.983C1024.24 249.687 1103.4 285.965 1096.68 446.417C1089.96 606.869 929.976 615.652 904.654 607.868C879.332 600.085 883.728 554.455 908.814 549.886C932.69 545.537 970.584 567.381 942.74 610.868C914.895 654.355 857.927 704.339 769.593 713.337C681.259 722.334 519.842 662.279 462.665 600.871C402.695 536.46 286.958 461.412 161.499 518.895C61.1313 564.881 17.6897 660.019 8.51492 701.84C-4.92716 762.156 -9.79166 892.083 78.286 929.272C188.383 975.758 392 860.5 467.25 839C523.919 822.809 749 789.5 856.326 804.575C913.5 812.606 1014.87 808.5 1079.47 879C1087.26 887.5 1156.38 969.789 1103.51 1030.59C1058.37 1082.5 759.937 1112.5 604.5 1106.5" stroke="#F56408" stroke-width="2"/>
</svg>
