<svg width="100" height="80" viewBox="0 0 100 80" fill="none" xmlns="http://www.w3.org/2000/svg">
<path d="M71.459 70.1851C77.6875 78.128 88.0742 81.736 98.1741 79.1964C100.692 78.5659 100.226 75.457 98.1741 74.6426C92.6447 72.4357 88.2982 68.4249 85.7083 63.2318C105.379 48.4844 104.86 18.7357 83.432 5.37196C71.5756 -2.01924 57.0575 -0.583033 43.9912 2.56961C39.9942 3.53292 36.0779 4.79398 32.3319 6.3703C11.0746 14.4358 -8.22015 39.0527 3.60044 59.4223C16.9356 82.4191 51.0531 84.8361 71.459 70.1851ZM16.1111 21.0826C17.4733 19.6552 18.9072 18.3591 20.3859 17.1506C26.9459 12.9208 34.2677 9.87324 41.9389 7.88532C53.2935 4.94285 66.7093 2.28062 77.7502 7.57881C99.3571 17.965 101.391 47.2146 81.4783 60.4031C80.6718 60.9373 79.9459 62.0845 80.3671 63.0829C82.4731 68.0921 85.6366 72.138 89.759 75.2118C83.4141 74.6688 77.5531 71.3148 73.9863 65.7714C73.1349 64.4578 71.4859 64.3439 70.3299 65.3072C52.5138 80.0984 20.7981 78.2769 7.77664 58.0036C-0.10077 45.7696 6.96111 30.6544 16.1111 21.0826Z" fill="white"/>
<path d="M30.6863 52.1192C32.3891 52.3994 33.6168 51.1997 33.3301 49.5358C33.1956 48.7389 32.6042 48.2309 31.9141 47.8544C30.0232 46.821 27.8992 48.8877 28.9657 50.7355C29.351 51.4098 29.8529 51.9791 30.6863 52.1192Z" fill="white"/>
<path d="M44.674 49.9896C46.3767 49.4554 47.5059 47.7565 46.9951 45.9963C46.9592 45.8737 46.9234 45.7423 46.8875 45.6197C46.6635 44.7702 45.9286 44.0521 45.0593 43.8332C44.3424 43.658 43.6434 43.5267 42.9085 43.7281C41.2326 44.1747 40.0407 46.0488 40.5874 47.7215C41.1161 49.3328 42.8995 50.5501 44.674 49.9896Z" fill="white"/>
<path d="M54.5647 46.3736C58.5527 46.3736 58.5616 40.3135 54.5647 40.3135C50.5767 40.3135 50.5677 46.3736 54.5647 46.3736Z" fill="white"/>
<path d="M66.8032 41.7587C70.2714 41.7587 70.2804 36.4868 66.8032 36.4868C63.326 36.4868 63.326 41.7587 66.8032 41.7587Z" fill="white"/>
</svg>
