<svg width="100" height="100" viewBox="0 0 100 100" fill="none" xmlns="http://www.w3.org/2000/svg">
<path d="M3.0831 97.2676C9.52423 91.0374 15.6821 84.4881 21.5811 77.5823C21.8562 77.4134 22.099 77.1507 22.3094 76.7754C28.6696 64.9811 34.2206 52.4644 39.3913 39.9195C41.9241 33.783 44.1655 27.4965 46.6416 21.332C46.9896 20.4687 49.2553 17.3912 49.6032 15.4207C49.9755 15.1768 50.2506 14.7452 50.1939 14.2291C50.0483 12.8592 49.49 11.6019 48.6969 10.4572C47.9606 6.22553 44.5944 2.40669 41.2848 0.952345C37.8377 -0.567681 33.727 -0.239281 30.4174 1.73112C29.2522 1.95631 28.2488 2.49114 27.5772 3.52325C27.5124 3.62647 27.5448 3.77659 27.6176 3.86104L27.6257 3.87042C25.2386 6.82603 23.8792 10.8607 22.3417 14.4825C20.0113 19.9621 17.8022 25.498 15.6336 31.0714C11.4096 41.9555 7.33941 52.896 2.03924 63.1608C1.73984 63.7426 1.72366 64.3056 1.88549 64.7935C1.61037 64.9999 1.39191 65.2908 1.31908 65.8068C1.26244 66.1634 1.30289 66.5293 1.41618 66.8483C1.31098 67.2799 1.25434 67.7115 1.31098 68.1432C1.36762 68.6029 1.46472 69.1284 1.65892 69.5412C1.17341 71.7274 1.18151 74.2514 0.954935 76.3532C0.259034 82.7992 0.0162842 89.2828 0.000100507 95.7757C-0.0160832 97.7274 1.92596 98.3842 3.0831 97.2676ZM41.7784 9.8004C42.7413 10.4947 43.6638 11.2641 44.5296 12.1274C44.9828 12.5777 45.355 13.0093 45.711 13.4128C45.7758 13.7037 45.8405 14.0039 45.9133 14.2948C45.9457 14.4262 45.9943 14.5294 46.0509 14.642C43.8176 17.1753 42.8465 20.6658 41.5437 24.0436C39.2699 29.9173 36.8909 35.7347 34.4229 41.4958C29.8834 52.0984 24.8583 62.3445 19.8656 72.6563C18.8946 71.718 17.8346 70.8079 16.7179 69.9353C16.7584 69.8508 16.7988 69.7758 16.8474 69.6913C21.8643 60.3178 26.42 50.6347 30.288 40.5575C32.0034 36.0912 33.6056 31.5593 35.0945 26.9805C36.988 21.1068 38.3313 14.7827 41.7784 9.8004ZM18.6033 33.0887C20.5777 27.8061 22.5926 22.5517 24.7046 17.3536C26.1935 13.6943 28.3135 9.81917 29.1875 5.77515C29.495 5.61564 29.8105 5.45613 30.118 5.306C30.4255 5.37168 30.7573 5.43736 31.1214 5.50304C33.5813 6.00034 35.8632 6.52578 38.1775 7.65172C39.011 8.05519 39.8121 8.52433 40.597 9.02163C38.2342 12.6059 36.988 16.5279 35.669 20.769C33.6784 27.1869 31.4694 33.5109 29.0175 39.713C26.9136 45.0331 24.6641 50.2875 22.2608 55.4294C20.9904 58.1598 19.6714 60.8527 18.312 63.5174C17.5595 64.9999 16.7745 66.4636 16.0058 67.9367C15.7873 68.3496 15.585 68.678 15.407 68.9782C12.3726 66.8014 9.02254 64.9624 5.82625 63.7426C10.7542 53.9093 14.7111 43.5131 18.6033 33.0887ZM4.53155 65.91C5.7777 66.6513 7.04003 67.355 8.30236 68.0775C7.17759 67.6083 6.03664 67.2236 4.91187 66.9421C4.79049 66.595 4.65292 66.2666 4.4749 65.9476C4.49109 65.9288 4.50727 65.9194 4.53155 65.91ZM4.40208 77.4416C4.63674 74.5517 5.65632 71.1081 5.21126 68.2088C7.63073 69.2691 9.82362 70.517 11.9518 71.962C12.2674 72.4499 12.761 72.7689 13.2789 72.919C13.2869 72.919 13.295 72.919 13.3112 72.9284C14.7435 73.9793 16.1676 75.124 17.6161 76.3813C15.1481 79.1774 12.6315 81.9078 10.0826 84.6007C8.94161 82.2175 6.50596 80.8007 4.16741 80.8945C4.24833 79.7404 4.31307 78.5863 4.40208 77.4416Z" fill="white"/>
<path d="M81.7175 51.834C86.4027 47.5461 90.6186 42.2916 95.1662 37.7503C98.0793 34.851 99.3578 31.5107 96.9464 27.5699C96.8493 27.4104 96.7441 27.279 96.6308 27.1477C96.7522 27.0069 96.8736 26.8662 96.9949 26.7161C97.2701 26.3877 97.4157 25.9936 97.4643 25.5807C99.9242 22.0809 100.992 16.0759 98.848 12.8575C95.3928 7.67819 89.1701 11.4126 86.3622 15.344C86.2651 15.4848 86.1923 15.6349 86.1518 15.785C72.2257 32.4209 58.4291 49.3476 45.3688 66.9592C42.9413 69.7741 40.5623 72.6453 38.1994 75.4789C35.2216 79.0444 32.3086 82.685 29.4683 86.4006C28.3274 87.8925 26.9032 89.1028 27.3563 91.092C26.4177 93.3251 25.7056 95.6802 25.1392 98.0635C24.8074 99.4709 26.094 100.39 27.1217 99.8369C30.9168 97.7726 34.7604 95.6521 38.4017 93.1844C39.5508 93.0249 40.8374 92.1617 42.4881 90.3039C48.5085 83.5576 54.3265 76.5485 60.2336 69.6803C71.457 56.6287 82.7695 43.6615 93.8553 30.4504C94.0981 31.8485 94.179 33.1903 93.3213 34.6071C92.1803 36.493 89.5828 38.257 88.102 39.8146C85.1242 42.9297 81.9279 46.1386 79.6379 49.9668C78.7073 51.5244 80.6332 52.8192 81.7175 51.834ZM28.6187 95.3894C29.1042 93.6817 29.6706 92.0115 30.3342 90.3601C30.6983 89.45 31.1838 88.5305 31.5156 87.5734C31.5722 87.6673 31.6289 87.7517 31.7017 87.8362C32.9155 89.2811 33.9269 90.5384 34.8575 91.4861C32.7779 92.7715 30.6983 94.0945 28.6187 95.3894ZM92.9976 25.6276C83.1255 36.7651 73.4395 48.1372 63.705 59.4436C58.6961 65.2609 53.6873 71.0689 48.6784 76.8863C46.178 79.795 43.6695 82.7037 41.1692 85.6124C40.6432 86.2223 38.9034 88.9058 37.9324 88.9339C37.3822 88.9527 35.8204 86.729 34.9465 85.4811C35.0032 85.4341 35.0598 85.3778 35.1164 85.3028C52.4816 63.1216 69.5878 40.7247 87.6003 19.2379C89.6961 20.955 91.5572 22.8972 93.2727 25.0834C93.1513 25.243 93.0623 25.4306 92.9976 25.6276ZM89.2672 16.1791C91.2659 14.4995 93.6935 12.623 95.8378 14.4902C97.5047 15.9258 96.736 19.4631 95.4656 22.0528C93.5559 19.8666 91.4925 17.9431 89.2672 16.1791Z" fill="white"/>
</svg>
