<svg width="144" height="82" viewBox="0 0 144 82" fill="none" xmlns="http://www.w3.org/2000/svg">
<line x1="60.5858" y1="32.4142" x2="30.5858" y2="2.41421" stroke="white" stroke-width="4"/>
<line x1="1.58579" y1="32.5858" x2="32.5858" y2="1.58579" stroke="white" stroke-width="4"/>
<line x1="2" y1="79" x2="2" y2="31" stroke="white" stroke-width="4"/>
<line y1="80" x2="35" y2="80" stroke="white" stroke-width="4"/>
<path d="M21.2319 63.94C21.2052 63.8467 21.1652 63.8 21.1119 63.8C21.1652 63.8133 21.2052 63.86 21.2319 63.94ZM22.0719 66.58L21.8319 66.52C21.7119 66.4933 21.5719 66.4667 21.4119 66.44C21.2519 66.4133 21.0985 66.38 20.9519 66.34C20.7919 66.2733 20.6385 66.1933 20.4919 66.1C20.3585 66.0067 20.2185 65.8933 20.0719 65.76C19.8852 65.5733 19.7719 65.3467 19.7319 65.08C19.6919 64.8267 19.7452 64.5867 19.8919 64.36L19.8719 64.38C19.9785 64.1267 20.1452 63.96 20.3719 63.88C20.5985 63.7867 20.8252 63.7533 21.0519 63.78C21.0652 63.78 21.0719 63.7867 21.0719 63.8C21.0852 63.8 21.0985 63.8 21.1119 63.8C21.1652 63.8 21.2185 63.8133 21.2719 63.84C21.3252 63.8533 21.3852 63.8733 21.4519 63.9C21.8785 64.0733 22.3052 64.16 22.7319 64.16C22.9852 64.16 23.2452 64.1333 23.5119 64.08C23.7919 64.04 24.0652 63.9933 24.3319 63.94L24.6119 63.9L24.7719 63.86C25.3319 63.7267 25.8919 63.52 26.4519 63.24C27.0119 62.96 27.5252 62.66 27.9919 62.34L28.0919 62.26C28.1452 62.2333 28.1985 62.2 28.2519 62.16C28.3052 62.1067 28.3452 62.0533 28.3719 62C28.5185 61.8533 28.5919 61.72 28.5919 61.6C28.5919 61.5467 28.5052 61.4667 28.3319 61.36L28.3519 61.38C28.1652 61.26 27.9585 61.1467 27.7319 61.04C27.5052 60.9333 27.2985 60.86 27.1119 60.82C26.8452 60.7533 26.5719 60.6933 26.2919 60.64C26.0252 60.5867 25.7585 60.5333 25.4919 60.48C25.3452 60.4533 25.2052 60.4267 25.0719 60.4C24.9385 60.3733 24.8119 60.3467 24.6919 60.32C24.5319 60.2933 24.3719 60.2667 24.2119 60.24C24.0652 60.2133 23.9119 60.1867 23.7519 60.16C23.6585 60.16 23.5719 60.1533 23.4919 60.14C23.4252 60.1267 23.3652 60.1133 23.3119 60.1L22.9119 60.02C22.6452 59.98 22.3785 59.9333 22.1119 59.88C21.8452 59.8133 21.5785 59.7267 21.3119 59.62V59.64C20.5519 59.4133 19.9452 59.0533 19.4919 58.56C19.0385 58.0667 18.8119 57.52 18.8119 56.92C18.8119 56.6133 18.8785 56.2867 19.0119 55.94C19.1452 55.58 19.3252 55.2267 19.5519 54.88C20.4852 53.5867 21.6052 52.6 22.9119 51.92C24.2185 51.2267 25.6785 50.8933 27.2919 50.92C27.5319 50.92 27.7785 50.96 28.0319 51.04C28.2852 51.1067 28.5185 51.2067 28.7319 51.34C29.0252 51.5267 29.2052 51.7733 29.2719 52.08C29.3519 52.3733 29.3319 52.64 29.2119 52.88C29.1052 53.16 28.9119 53.3533 28.6319 53.46C28.3652 53.5667 28.0452 53.5533 27.6719 53.42C27.4185 53.3133 27.1319 53.26 26.8119 53.26C26.6519 53.26 26.4852 53.28 26.3119 53.32C26.1385 53.3467 25.9585 53.3867 25.7719 53.44C25.0385 53.6667 24.2985 54.0133 23.5519 54.48C22.8185 54.9333 22.2052 55.4667 21.7119 56.08C21.5919 56.24 21.4919 56.3867 21.4119 56.52C21.3452 56.6533 21.3119 56.7667 21.3119 56.86C21.3119 56.94 21.3852 57.02 21.5319 57.1C21.6785 57.1667 21.8719 57.2333 22.1119 57.3C22.3385 57.3533 22.5719 57.4 22.8119 57.44C23.0652 57.48 23.3052 57.52 23.5319 57.56C23.6252 57.5733 23.7119 57.5933 23.7919 57.62C23.8719 57.6333 23.9585 57.6467 24.0519 57.66L24.7119 57.78C24.9252 57.82 25.1319 57.86 25.3319 57.9C25.5452 57.9267 25.7652 57.9667 25.9919 58.02C26.3652 58.0733 26.6652 58.14 26.8919 58.22C27.1319 58.3 27.4052 58.3867 27.7119 58.48C27.8719 58.5333 28.0319 58.58 28.1919 58.62C28.3652 58.66 28.5385 58.7067 28.7119 58.76C28.8585 58.8 28.9719 58.8467 29.0519 58.9C29.1319 58.94 29.2119 58.98 29.2919 59.02H29.2719L29.4319 59.1L29.4919 59.14C30.0252 59.4733 30.4252 59.8533 30.6919 60.28C30.9719 60.7067 31.1119 61.1533 31.1119 61.62C31.1119 62.02 31.0185 62.4133 30.8319 62.8C30.6585 63.1867 30.3785 63.5333 29.9919 63.84L30.0119 63.82C28.9719 64.7667 27.8252 65.4533 26.5719 65.88C25.3185 66.32 23.9252 66.5667 22.3919 66.62L22.0719 66.58ZM39.3423 54.1C39.3423 54.1133 39.3557 54.12 39.3823 54.12L39.3423 54.1ZM39.2623 54.08C39.2757 54.0933 39.289 54.1 39.3023 54.1L39.3823 53.98C39.409 53.94 39.429 53.9067 39.4423 53.88C39.469 53.84 39.5223 53.7867 39.6023 53.72H39.5823C39.849 53.4 40.1757 53.24 40.5623 53.24C40.8023 53.24 41.0223 53.32 41.2223 53.48C41.4223 53.6267 41.5757 53.8533 41.6823 54.16C41.7223 54.28 41.7423 54.4 41.7423 54.52C41.7557 54.6267 41.7623 54.7333 41.7623 54.84C41.7623 54.9067 41.7623 54.9733 41.7623 55.04C41.7623 55.1067 41.769 55.1733 41.7823 55.24L41.9023 56.08C41.9423 56.4 41.9823 56.72 42.0223 57.04C42.0757 57.3467 42.1357 57.6667 42.2023 58C42.269 58.32 42.349 58.6533 42.4423 59C42.549 59.3467 42.6557 59.6933 42.7623 60.04C42.829 60.2533 42.889 60.4667 42.9423 60.68C43.009 60.88 43.0757 61.08 43.1423 61.28C43.169 61.44 43.1957 61.6 43.2223 61.76C43.249 61.9067 43.2557 62.06 43.2423 62.22C43.2023 62.7933 42.9157 63.1467 42.3823 63.28H42.4023C42.1623 63.3467 41.9157 63.32 41.6623 63.2C41.409 63.08 41.2157 62.8867 41.0823 62.62C40.989 62.4067 40.909 62.2133 40.8423 62.04C40.7757 61.8533 40.7157 61.6867 40.6623 61.54H40.6823L40.4823 60.86L40.4223 60.72L40.1823 61.18C39.969 61.66 39.7023 62.0933 39.3823 62.48C39.0757 62.8667 38.7223 63.22 38.3223 63.54C37.7357 63.9667 37.1357 64.18 36.5223 64.18C36.2023 64.18 35.9023 64.14 35.6223 64.06C34.6223 63.7667 33.8623 63.2533 33.3423 62.52C32.8223 61.7867 32.5823 60.9133 32.6223 59.9C32.6757 58.7667 32.9357 57.74 33.4023 56.82C33.8823 55.9 34.5957 55.1 35.5423 54.42C36.209 53.9533 36.9023 53.72 37.6223 53.72C37.8357 53.72 38.0557 53.74 38.2823 53.78C38.509 53.82 38.7423 53.8933 38.9823 54L39.1223 54.04C39.149 54.04 39.169 54.0467 39.1823 54.06C39.209 54.0733 39.2357 54.08 39.2623 54.08ZM36.9423 56.42C36.3023 56.8467 35.8357 57.36 35.5423 57.96C35.2623 58.5467 35.0957 59.22 35.0423 59.98V60.26C35.0823 60.9267 35.4223 61.3933 36.0623 61.66C36.3557 61.7667 36.6023 61.7533 36.8023 61.62C37.0157 61.4733 37.2157 61.3 37.4023 61.1C37.5623 60.94 37.669 60.8067 37.7223 60.7H37.7023C38.009 60.1667 38.249 59.6133 38.4223 59.04C38.609 58.4533 38.7557 57.86 38.8623 57.26C38.8623 57.1933 38.849 57.1133 38.8223 57.02C38.7957 56.9133 38.769 56.8267 38.7423 56.76C38.5957 56.5733 38.429 56.4333 38.2423 56.34C38.069 56.2333 37.889 56.18 37.7023 56.18C37.4357 56.18 37.1823 56.26 36.9423 56.42ZM50.3423 56.64C50.3157 56.5067 50.3023 56.3933 50.3023 56.3C50.2757 56.3267 50.249 56.3467 50.2223 56.36C50.209 56.3733 50.189 56.3933 50.1623 56.42C50.0023 56.5667 49.849 56.72 49.7023 56.88V56.86C49.1157 57.58 48.6557 58.3733 48.3223 59.24C47.989 60.1067 47.7623 61 47.6423 61.92C47.6423 61.9467 47.6357 61.9867 47.6223 62.04C47.6223 62.0933 47.6223 62.1333 47.6223 62.16C47.5957 62.3467 47.5757 62.54 47.5623 62.74C47.549 62.94 47.5157 63.1133 47.4623 63.26C47.3823 63.5667 47.2223 63.8133 46.9823 64C46.7557 64.1733 46.5157 64.26 46.2623 64.26C46.009 64.26 45.769 64.1733 45.5423 64C45.329 63.8133 45.1757 63.5667 45.0823 63.26C45.0423 63.1267 45.009 62.9667 44.9823 62.78C44.9557 62.58 44.9423 62.4067 44.9423 62.26C44.9157 61.0867 44.8957 59.8667 44.8823 58.6C44.8823 57.32 44.8757 56.0933 44.8623 54.92C44.8623 54.7867 44.869 54.66 44.8823 54.54C44.8957 54.42 44.9157 54.3133 44.9423 54.22V54.24C45.009 53.9333 45.1557 53.6867 45.3823 53.5C45.609 53.3133 45.869 53.2267 46.1623 53.24C46.4557 53.24 46.7023 53.34 46.9023 53.54C47.1023 53.74 47.2157 54.0133 47.2423 54.36C47.2557 54.56 47.2557 54.7667 47.2423 54.98C47.2423 55.1933 47.2423 55.42 47.2423 55.66V56.02L48.0623 55.2C48.249 54.9867 48.4423 54.7867 48.6423 54.6C48.8557 54.4 49.069 54.24 49.2823 54.12V54.14C49.5357 53.98 49.7757 53.8667 50.0023 53.8C50.2423 53.7333 50.4757 53.7 50.7023 53.7C51.1823 53.7 51.5957 53.8667 51.9423 54.2C52.289 54.5333 52.529 55 52.6623 55.6C52.7157 55.8667 52.749 56.1533 52.7623 56.46C52.7757 56.7533 52.7823 57.04 52.7823 57.32V57.92C52.769 58.6267 52.7423 59.34 52.7023 60.06C52.6623 60.78 52.6157 61.5067 52.5623 62.24C52.5357 62.44 52.5023 62.6333 52.4623 62.82C52.4223 63.0067 52.369 63.1867 52.3023 63.36C52.2223 63.6267 52.0823 63.8333 51.8823 63.98C51.6823 64.1133 51.4423 64.1667 51.1623 64.14C50.8557 64.1133 50.6223 64.0133 50.4623 63.84C50.3023 63.6533 50.1957 63.4267 50.1423 63.16C50.1157 63.0133 50.1023 62.86 50.1023 62.7C50.1023 62.5267 50.109 62.3733 50.1223 62.24C50.1223 62.2133 50.1223 62.1867 50.1223 62.16C50.1357 62.1333 50.1423 62.1067 50.1423 62.08L50.2623 59.66L50.3823 57.24C50.3957 57.08 50.3823 56.88 50.3423 56.64ZM59.8703 54.28C59.897 54.1067 59.917 53.9267 59.9303 53.74C59.9436 53.5533 59.957 53.3733 59.9703 53.2L60.0303 52.3C60.0436 52.0733 60.057 51.8267 60.0703 51.56C60.0836 51.2933 60.1036 51.0467 60.1303 50.82C60.1836 50.42 60.317 50.1067 60.5303 49.88C60.757 49.6533 61.017 49.5467 61.3103 49.56C61.617 49.5733 61.8703 49.7 62.0703 49.94C62.2703 50.18 62.3836 50.4933 62.4103 50.88C62.4236 51.0267 62.4303 51.1933 62.4303 51.38C62.4436 51.5533 62.4503 51.7133 62.4503 51.86C62.4503 51.98 62.4436 52.1 62.4303 52.22C62.4303 52.3267 62.4303 52.44 62.4303 52.56C62.4303 52.6267 62.4236 52.6867 62.4103 52.74C62.4103 52.78 62.4103 52.8333 62.4103 52.9L62.3303 57.26L62.2703 61.58C62.2703 61.62 62.277 61.6733 62.2903 61.74C62.3036 61.8067 62.3236 61.8733 62.3503 61.94L62.3903 62.18C62.4836 62.6067 62.4703 62.96 62.3503 63.24C62.2436 63.52 61.997 63.7333 61.6103 63.88C61.1836 64.04 60.7636 64.16 60.3503 64.24C59.937 64.3333 59.537 64.38 59.1503 64.38C58.7103 64.38 58.257 64.3133 57.7903 64.18C57.337 64.0467 56.917 63.8267 56.5303 63.52C55.9303 63.0267 55.4103 62.4467 54.9703 61.78C54.5436 61.1 54.3303 60.3733 54.3303 59.6C54.3303 59.2667 54.3703 58.9267 54.4503 58.58C54.677 57.5933 55.1303 56.7733 55.8103 56.12C56.5036 55.4667 57.337 55.02 58.3103 54.78L59.1303 54.68L59.8303 54.56L59.8703 54.28ZM59.7503 61.78C59.777 61.7267 59.7903 61.6867 59.7903 61.66C59.7903 61.38 59.7836 61.1067 59.7703 60.84C59.7703 60.56 59.7703 60.28 59.7703 60V57.54C59.7436 57.38 59.6836 57.2667 59.5903 57.2C59.497 57.12 59.337 57.0933 59.1103 57.12C58.777 57.1333 58.4636 57.2133 58.1703 57.36C57.877 57.5067 57.6236 57.7 57.4103 57.94C57.197 58.18 57.0303 58.4533 56.9103 58.76C56.8036 59.0667 56.7703 59.3867 56.8103 59.72C56.9036 60.36 57.1636 60.8733 57.5903 61.26C58.017 61.6333 58.5636 61.82 59.2303 61.82C59.3103 61.82 59.3903 61.82 59.4703 61.82C59.5503 61.82 59.6436 61.8067 59.7503 61.78ZM67.9141 57.42L68.5341 58.14L68.9741 57.12C69.0674 56.9333 69.1541 56.7533 69.2341 56.58C69.3141 56.3933 69.3941 56.2133 69.4741 56.04L69.5941 55.78C69.7141 55.5667 69.8274 55.3667 69.9341 55.18C70.0541 54.98 70.1807 54.7933 70.3141 54.62C70.5274 54.34 70.7741 54.1733 71.0541 54.12C71.3474 54.0533 71.6074 54.0933 71.8341 54.24C72.0741 54.3867 72.2274 54.6 72.2941 54.88C72.3741 55.1467 72.3541 55.44 72.2341 55.76C72.0874 56.1467 71.9274 56.54 71.7541 56.94C71.5807 57.3267 71.4007 57.7133 71.2141 58.1C70.6141 59.4333 69.9941 60.8 69.3541 62.2C68.7274 63.6 68.1141 64.9533 67.5141 66.26C67.4474 66.4067 67.3674 66.54 67.2741 66.66C67.1941 66.7933 67.1007 66.92 66.9941 67.04H67.0141C66.8674 67.2267 66.6807 67.3467 66.4541 67.4C66.2407 67.4533 66.0274 67.4067 65.8141 67.26C65.6541 67.14 65.5074 67 65.3741 66.84C65.2541 66.68 65.1807 66.5133 65.1541 66.34C65.1274 66.1533 65.1341 65.96 65.1741 65.76C65.2274 65.5733 65.2941 65.3933 65.3741 65.22L66.5141 62.52L67.0741 61.26C67.1541 61.1 67.2141 60.9667 67.2541 60.86C67.3074 60.7533 67.3341 60.6533 67.3341 60.56C67.3341 60.4933 67.2941 60.4133 67.2141 60.32C67.1474 60.2133 67.0341 60.0667 66.8741 59.88C66.4874 59.4533 66.1074 59.0133 65.7341 58.56C65.3607 58.1067 64.9874 57.6467 64.6141 57.18C64.5207 57.0733 64.4274 56.96 64.3341 56.84C64.2541 56.7067 64.1807 56.5667 64.1141 56.42C63.9941 56.1533 63.9607 55.8867 64.0141 55.62C64.0674 55.3533 64.2074 55.14 64.4341 54.98C64.6207 54.8333 64.8274 54.76 65.0541 54.76C65.3341 54.76 65.6141 54.88 65.8941 55.12C66.0407 55.2667 66.1807 55.4267 66.3141 55.6C66.4607 55.76 66.6074 55.92 66.7541 56.08C66.8341 56.1733 66.9074 56.2667 66.9741 56.36C67.0407 56.44 67.1207 56.5333 67.2141 56.64L67.9141 57.42ZM74.1312 53.28C74.1712 53.12 74.1979 53 74.2112 52.92C74.2246 52.8267 74.2446 52.7467 74.2712 52.68C74.5512 52.1733 74.8246 51.66 75.0912 51.14C75.3712 50.62 75.6712 50.1133 75.9912 49.62C76.2179 49.3 76.4846 49.12 76.7912 49.08C77.0979 49.0267 77.3779 49.0933 77.6312 49.28C77.8579 49.44 77.9979 49.66 78.0512 49.94C78.1046 50.22 78.0446 50.5267 77.8712 50.86C77.6312 51.3133 77.3846 51.7667 77.1312 52.22C76.8779 52.66 76.6246 53.1 76.3712 53.54C76.2379 53.74 76.0912 53.9 75.9312 54.02C75.7446 54.1667 75.5379 54.26 75.3112 54.3C75.0979 54.3267 74.8979 54.2667 74.7112 54.12C74.5646 54.0133 74.4446 53.8733 74.3512 53.7C74.2712 53.5267 74.1979 53.3867 74.1312 53.28ZM83.1887 65.78C83.0687 65.7667 82.9554 65.7533 82.8487 65.74C82.7554 65.74 82.6554 65.7333 82.5487 65.72C82.3354 65.6933 82.1287 65.6667 81.9287 65.64C81.7421 65.6267 81.5754 65.5933 81.4287 65.54C81.2421 65.5 81.0687 65.4333 80.9087 65.34C80.7487 65.2467 80.5954 65.1467 80.4487 65.04C80.1954 64.8533 80.0421 64.6133 79.9887 64.32C79.9487 64.04 79.9887 63.7733 80.1087 63.52C80.2554 63.2533 80.4554 63.0733 80.7087 62.98C80.9754 62.8733 81.2621 62.8733 81.5687 62.98C81.8621 63.1133 82.1554 63.2133 82.4487 63.28C82.7421 63.3467 83.0421 63.3533 83.3487 63.3C83.5087 63.2867 83.6754 63.2733 83.8487 63.26C84.0221 63.2333 84.1821 63.1867 84.3287 63.12H84.3087C84.4021 63.0533 84.4954 62.9733 84.5887 62.88C84.6954 62.7733 84.7487 62.68 84.7487 62.6C84.7487 62.48 84.7087 62.36 84.6287 62.24C84.5487 62.1067 84.4621 61.9933 84.3687 61.9C84.2887 61.8467 84.1887 61.8 84.0687 61.76C83.9487 61.72 83.8354 61.68 83.7287 61.64L83.4687 61.54C83.1887 61.4067 82.8954 61.2933 82.5887 61.2C82.3621 61.1067 82.1354 61.02 81.9087 60.94C81.6821 60.86 81.5087 60.7867 81.3887 60.72C80.8021 60.4267 80.3621 60.0533 80.0687 59.6C79.7754 59.1333 79.6287 58.6467 79.6287 58.14C79.6287 57.7933 79.7087 57.4333 79.8687 57.06C80.0287 56.6733 80.2621 56.3067 80.5687 55.96C80.7687 55.76 81.0087 55.5733 81.2887 55.4C81.5821 55.2267 81.8887 55.08 82.2087 54.96C82.5421 54.8267 82.8887 54.7267 83.2487 54.66C83.6087 54.58 83.9554 54.54 84.2887 54.54C84.5154 54.54 84.7354 54.56 84.9487 54.6C85.1621 54.6267 85.3621 54.68 85.5487 54.76C85.8021 54.8667 86.0354 55.02 86.2487 55.22C86.4087 55.3667 86.5154 55.5467 86.5687 55.76C86.6354 55.96 86.5954 56.1667 86.4487 56.38H86.4687C86.3887 56.5267 86.2687 56.66 86.1087 56.78C85.9621 56.8867 85.8154 56.9733 85.6687 57.04C85.5487 57.0667 85.4287 57.08 85.3087 57.08C85.1887 57.0667 85.0621 57.0467 84.9287 57.02C84.8221 56.9933 84.7554 56.98 84.7287 56.98C84.3554 56.9267 83.9887 56.9333 83.6287 57C83.2821 57.0533 82.9554 57.18 82.6487 57.38H82.6687C82.5487 57.4733 82.4354 57.5867 82.3287 57.72C82.2221 57.8533 82.1621 57.9933 82.1487 58.14C82.1354 58.2067 82.1887 58.2933 82.3087 58.4C82.4421 58.4933 82.5754 58.5733 82.7087 58.64H82.6887C83.0487 58.8133 83.3754 58.9467 83.6687 59.04C83.7354 59.0667 83.8154 59.1 83.9087 59.14C84.0154 59.1667 84.1087 59.2 84.1887 59.24C84.2687 59.2667 84.3354 59.2867 84.3887 59.3C84.4554 59.3133 84.4821 59.32 84.4687 59.32C84.5087 59.36 84.5421 59.38 84.5687 59.38C84.7954 59.4733 85.0087 59.56 85.2087 59.64C85.4221 59.72 85.6154 59.8067 85.7887 59.9C86.3221 60.2467 86.6954 60.68 86.9087 61.2C87.1354 61.7067 87.2287 62.26 87.1887 62.86C87.1221 63.4467 86.9221 63.9467 86.5887 64.36C86.2554 64.7867 85.8354 65.1067 85.3287 65.32C85.0887 65.4267 84.8421 65.5 84.5887 65.54C84.3487 65.5933 84.1221 65.64 83.9087 65.68L83.2687 65.78H83.1887ZM103.019 58.5C103.139 58.7 103.259 58.9133 103.379 59.14C103.499 59.3533 103.612 59.56 103.719 59.76C103.786 59.8933 103.866 60.0467 103.959 60.22C104.052 60.38 104.132 60.52 104.199 60.64L104.499 61.22V61.2C104.739 61.6533 104.979 62.1133 105.219 62.58C105.459 63.0333 105.686 63.4867 105.899 63.94V63.92C105.979 64.08 106.046 64.2467 106.099 64.42C106.152 64.6067 106.206 64.7933 106.259 64.98V65.08C106.259 65.1067 106.259 65.12 106.259 65.12C106.272 65.1333 106.279 65.1467 106.279 65.16C106.266 65.3867 106.199 65.6067 106.079 65.82C105.959 66.0333 105.792 66.1867 105.579 66.28C105.006 66.4933 104.559 66.38 104.239 65.94L103.879 65.42L103.779 65.22L103.419 64.52V64.54L102.339 62.52L100.899 59.76V59.74V59.72L100.779 59.78L100.259 60.02C100.086 60.0867 99.9124 60.16 99.7391 60.24C99.5657 60.3067 99.3657 60.4133 99.1391 60.56C99.0857 60.6133 99.0591 60.6867 99.0591 60.78C99.0724 61.1133 99.0791 61.44 99.0791 61.76C99.0924 62.08 99.1124 62.4 99.1391 62.72L99.1791 63.66L99.2391 65.14V65.12C99.2524 65.2667 99.2591 65.42 99.2591 65.58C99.2591 65.74 99.2457 65.8867 99.2191 66.02C99.1657 66.26 99.0524 66.4667 98.8791 66.64C98.7191 66.8267 98.4857 66.9133 98.1791 66.9C98.0324 66.8867 97.8591 66.8333 97.6591 66.74C97.4591 66.6467 97.3057 66.5333 97.1991 66.4C97.0924 66.2533 97.0057 66.0667 96.9391 65.84C96.8724 65.6267 96.8324 65.4267 96.8191 65.24C96.7657 64.7467 96.7324 64.2333 96.7191 63.7C96.7057 63.1533 96.6857 62.6267 96.6591 62.12L96.6191 61.28C96.6057 61.1333 96.5857 61.0067 96.5591 60.9C96.5457 60.78 96.4857 60.6667 96.3791 60.56C96.1524 60.3333 96.0391 60.08 96.0391 59.8C96.0391 59.5333 96.1457 59.3 96.3591 59.1C96.4791 58.9933 96.5457 58.88 96.5591 58.76C96.5724 58.64 96.5724 58.5067 96.5591 58.36V58.08C96.5324 57.24 96.5057 56.34 96.4791 55.38C96.4524 54.4067 96.4257 53.4867 96.3991 52.62C96.3857 52.3133 96.3991 52.0067 96.4391 51.7C96.5991 51.06 97.0124 50.74 97.6791 50.74C97.8257 50.74 97.9524 50.74 98.0591 50.74C98.1791 50.7267 98.3124 50.7133 98.4591 50.7H98.6191C99.0857 50.6733 99.5791 50.66 100.099 50.66C100.619 50.6467 101.112 50.64 101.579 50.64C102.166 50.64 102.739 50.7 103.299 50.82C103.859 50.94 104.406 51.1733 104.939 51.52C105.446 51.8667 105.839 52.2933 106.119 52.8C106.412 53.3067 106.539 53.88 106.499 54.52C106.472 54.9067 106.372 55.2667 106.199 55.6C106.026 55.92 105.799 56.2133 105.519 56.48C105.332 56.6533 105.126 56.8333 104.899 57.02C104.672 57.1933 104.466 57.3533 104.279 57.5L103.959 57.78C103.919 57.82 103.879 57.8533 103.839 57.88C103.799 57.9067 103.766 57.9333 103.739 57.96L103.519 58.14L103.019 58.5ZM98.5191 58.42C98.4257 58.38 98.3857 58.3133 98.3991 58.22C98.4124 58.1267 98.4657 58.0733 98.5591 58.06L98.7591 58C98.8257 57.96 98.8857 57.96 98.9391 58C98.9924 58.04 99.0191 58.0933 99.0191 58.16V58.4C99.0191 58.4933 98.9857 58.56 98.9191 58.6C98.8524 58.6267 98.7857 58.6133 98.7191 58.56L98.5191 58.42ZM98.6791 53.18L98.7391 53.06V53.2H98.5791L98.6591 53.18H98.6791ZM98.7391 53.2C98.7657 53.7867 98.7924 54.38 98.8191 54.98C98.8591 55.5667 98.8991 56.1667 98.9391 56.78L98.9791 57.32L99.0191 57.9L99.1191 57.86H99.0791L99.7591 57.46C100.146 57.26 100.512 57.0667 100.859 56.88C101.206 56.6933 101.466 56.5333 101.639 56.4C101.986 56.16 102.346 55.8933 102.719 55.6C103.106 55.2933 103.439 55.0067 103.719 54.74C103.959 54.5533 104.079 54.36 104.079 54.16C104.079 53.96 103.899 53.76 103.539 53.56C103.352 53.4533 103.166 53.3667 102.979 53.3C102.806 53.2333 102.626 53.1867 102.439 53.16H101.159H99.3791C99.3124 53.16 99.2391 53.1667 99.1591 53.18C99.0924 53.18 99.0257 53.18 98.9591 53.18L98.7391 53.2ZM117.395 58.8C117.369 58.9333 117.349 59.06 117.335 59.18C117.322 59.2867 117.309 59.3933 117.295 59.5C117.269 59.7 117.242 59.9067 117.215 60.12C117.202 60.32 117.175 60.5133 117.135 60.7C117.029 61.2067 116.835 61.6733 116.555 62.1C116.289 62.5133 115.955 62.8733 115.555 63.18C115.169 63.4733 114.729 63.7067 114.235 63.88C113.742 64.0533 113.229 64.14 112.695 64.14C112.162 64.14 111.649 64.06 111.155 63.9C110.675 63.74 110.235 63.5133 109.835 63.22C109.449 62.9267 109.109 62.58 108.815 62.18C108.535 61.78 108.329 61.3467 108.195 60.88C108.022 60.3067 107.935 59.6867 107.935 59.02C107.935 58.5533 107.975 58.1 108.055 57.66C108.135 57.2067 108.235 56.76 108.355 56.32C108.595 55.52 109.042 54.8933 109.695 54.44C110.349 53.9867 111.102 53.76 111.955 53.76C112.262 53.7467 112.555 53.7533 112.835 53.78C113.129 53.7933 113.415 53.8333 113.695 53.9C114.255 54.0333 114.762 54.2467 115.215 54.54C115.669 54.82 116.055 55.1733 116.375 55.6C116.695 56.0133 116.942 56.4867 117.115 57.02C117.302 57.5533 117.395 58.1333 117.395 58.76V58.8ZM110.175 58.76C110.202 58.7733 110.215 58.78 110.215 58.78C110.229 58.78 110.262 58.7933 110.315 58.82C110.289 58.9 110.275 58.9533 110.275 58.98L110.175 58.76ZM110.315 58.82C110.382 58.8467 110.415 58.9 110.415 58.98V59.56C110.442 60.16 110.642 60.6667 111.015 61.08C111.402 61.4933 111.895 61.7133 112.495 61.74C113.082 61.74 113.595 61.5867 114.035 61.28C114.489 60.9733 114.755 60.46 114.835 59.74C114.875 59.42 114.895 59.1067 114.895 58.8C114.895 58.28 114.835 57.86 114.715 57.54C114.595 57.2067 114.422 56.9467 114.195 56.76C113.982 56.56 113.715 56.42 113.395 56.34C113.075 56.2467 112.709 56.18 112.295 56.14C111.989 56.1 111.715 56.1467 111.475 56.28C111.249 56.4 111.075 56.6 110.955 56.88C110.849 57.0933 110.755 57.34 110.675 57.62C110.595 57.8867 110.515 58.16 110.435 58.44L110.315 58.82ZM128.426 58.8C128.399 58.9333 128.379 59.06 128.366 59.18C128.353 59.2867 128.339 59.3933 128.326 59.5C128.299 59.7 128.273 59.9067 128.246 60.12C128.233 60.32 128.206 60.5133 128.166 60.7C128.059 61.2067 127.866 61.6733 127.586 62.1C127.319 62.5133 126.986 62.8733 126.586 63.18C126.199 63.4733 125.759 63.7067 125.266 63.88C124.773 64.0533 124.259 64.14 123.726 64.14C123.193 64.14 122.679 64.06 122.186 63.9C121.706 63.74 121.266 63.5133 120.866 63.22C120.479 62.9267 120.139 62.58 119.846 62.18C119.566 61.78 119.359 61.3467 119.226 60.88C119.053 60.3067 118.966 59.6867 118.966 59.02C118.966 58.5533 119.006 58.1 119.086 57.66C119.166 57.2067 119.266 56.76 119.386 56.32C119.626 55.52 120.073 54.8933 120.726 54.44C121.379 53.9867 122.133 53.76 122.986 53.76C123.293 53.7467 123.586 53.7533 123.866 53.78C124.159 53.7933 124.446 53.8333 124.726 53.9C125.286 54.0333 125.793 54.2467 126.246 54.54C126.699 54.82 127.086 55.1733 127.406 55.6C127.726 56.0133 127.973 56.4867 128.146 57.02C128.333 57.5533 128.426 58.1333 128.426 58.76V58.8ZM121.206 58.76C121.233 58.7733 121.246 58.78 121.246 58.78C121.259 58.78 121.293 58.7933 121.346 58.82C121.319 58.9 121.306 58.9533 121.306 58.98L121.206 58.76ZM121.346 58.82C121.413 58.8467 121.446 58.9 121.446 58.98V59.56C121.473 60.16 121.673 60.6667 122.046 61.08C122.433 61.4933 122.926 61.7133 123.526 61.74C124.113 61.74 124.626 61.5867 125.066 61.28C125.519 60.9733 125.786 60.46 125.866 59.74C125.906 59.42 125.926 59.1067 125.926 58.8C125.926 58.28 125.866 57.86 125.746 57.54C125.626 57.2067 125.453 56.9467 125.226 56.76C125.013 56.56 124.746 56.42 124.426 56.34C124.106 56.2467 123.739 56.18 123.326 56.14C123.019 56.1 122.746 56.1467 122.506 56.28C122.279 56.4 122.106 56.6 121.986 56.88C121.879 57.0933 121.786 57.34 121.706 57.62C121.626 57.8867 121.546 58.16 121.466 58.44L121.346 58.82ZM140.256 57.92C140.256 57.6933 140.243 57.4667 140.216 57.24C140.19 57.0133 140.143 56.7667 140.076 56.5C139.823 56.6867 139.63 56.9 139.496 57.14C139.376 57.3667 139.283 57.6067 139.216 57.86C139.083 58.34 138.963 58.82 138.856 59.3C138.75 59.78 138.643 60.2667 138.536 60.76C138.496 60.96 138.456 61.16 138.416 61.36C138.376 61.5467 138.33 61.7333 138.276 61.92C138.263 61.9867 138.243 62.0533 138.216 62.12C138.203 62.1867 138.19 62.2533 138.176 62.32C138.15 62.4133 138.123 62.52 138.096 62.64C138.07 62.7467 138.036 62.8533 137.996 62.96V62.94C137.81 63.4467 137.456 63.7 136.936 63.7C136.656 63.7133 136.416 63.6467 136.216 63.5C136.016 63.34 135.883 63.1333 135.816 62.88H135.836C135.756 62.6533 135.703 62.44 135.676 62.24C135.663 62.04 135.656 61.8333 135.656 61.62C135.656 61.14 135.656 60.66 135.656 60.18C135.67 59.6867 135.683 59.1933 135.696 58.7C135.696 58.5133 135.696 58.2733 135.696 57.98C135.71 57.6733 135.716 57.4267 135.716 57.24C135.716 57.16 135.71 57.0867 135.696 57.02C135.683 56.9533 135.67 56.8933 135.656 56.84C135.656 56.7867 135.656 56.7333 135.656 56.68C135.643 56.6 135.63 56.56 135.616 56.56C135.616 56.56 135.616 56.52 135.616 56.44C135.35 56.52 135.143 56.6333 134.996 56.78C134.863 56.9267 134.723 57.0867 134.576 57.26V57.24C134.19 57.68 133.903 58.16 133.716 58.68C133.543 59.2 133.423 59.7333 133.356 60.28C133.316 60.5733 133.29 60.86 133.276 61.14C133.263 61.42 133.256 61.7 133.256 61.98V62.56C133.23 63.6267 132.843 64.2 132.096 64.28C131.75 64.32 131.443 64.2133 131.176 63.96C130.91 63.6933 130.73 63.3067 130.636 62.8C130.463 61.72 130.316 60.64 130.196 59.56C130.09 58.48 130.036 57.38 130.036 56.26C130.036 56.0333 130.036 55.8067 130.036 55.58C130.05 55.3533 130.063 55.1267 130.076 54.9C130.076 54.7667 130.083 54.62 130.096 54.46C130.123 54.2867 130.17 54.1267 130.236 53.98V54C130.45 53.4667 130.816 53.2067 131.336 53.22C131.616 53.22 131.856 53.3067 132.056 53.48C132.256 53.6533 132.383 53.9 132.436 54.22C132.463 54.3267 132.476 54.4533 132.476 54.6C132.476 54.7333 132.476 54.8667 132.476 55V55.48C132.476 55.5067 132.476 55.5467 132.476 55.6C132.49 55.64 132.503 55.6933 132.516 55.76V55.84L132.836 55.52L133.356 55.12C133.583 54.9333 133.83 54.7533 134.096 54.58C134.363 54.3933 134.63 54.2333 134.896 54.1C135.23 53.9133 135.576 53.82 135.936 53.82C136.59 53.82 137.196 54.2333 137.756 55.06L137.856 55.24C137.91 55.1867 137.963 55.1333 138.016 55.08C138.083 55.0267 138.15 54.9667 138.216 54.9L138.636 54.58C138.756 54.4867 138.876 54.3933 138.996 54.3C139.13 54.2067 139.256 54.1267 139.376 54.06C139.55 53.9533 139.73 53.88 139.916 53.84C140.103 53.7867 140.29 53.76 140.476 53.76C140.903 53.76 141.283 53.8867 141.616 54.14C141.95 54.3933 142.183 54.7667 142.316 55.26C142.423 55.6467 142.496 56.0533 142.536 56.48C142.59 56.9067 142.616 57.3333 142.616 57.76V58.38C142.616 59.0733 142.61 59.7733 142.596 60.48C142.583 61.1733 142.563 61.8667 142.536 62.56C142.523 62.7867 142.496 62.9533 142.456 63.06C142.35 63.34 142.203 63.5667 142.016 63.74C141.843 63.9133 141.623 64.0067 141.356 64.02C141.05 64.02 140.803 63.9467 140.616 63.8C140.43 63.6533 140.303 63.4467 140.236 63.18H140.256C140.136 62.8467 140.076 62.52 140.076 62.2C140.076 62.08 140.076 61.96 140.076 61.84C140.09 61.72 140.096 61.5933 140.096 61.46C140.11 60.9933 140.123 60.5267 140.136 60.06C140.163 59.5933 140.196 59.1267 140.236 58.66C140.25 58.5533 140.256 58.4333 140.256 58.3C140.256 58.1533 140.256 58.0267 140.256 57.92Z" fill="white"/>
</svg>
