<svg width="150" height="150" viewBox="0 0 150 150" fill="none" xmlns="http://www.w3.org/2000/svg">
<path d="M124.123 26.7433L121.448 27.987L120.633 27.1175L129.188 23.2324L130.135 24.245L125.731 32.5434L124.894 31.6519L126.282 29.0435L124.123 26.7433ZM126.766 28.2511L128.032 25.8628C128.319 25.3235 128.616 24.8613 128.902 24.4101L128.88 24.388C128.407 24.6522 127.911 24.9163 127.394 25.1585L124.916 26.2811L126.766 28.2511Z" fill="black"/>
<path d="M127.547 34.8447L134.88 29.793L135.596 30.8275L133.504 35.7362C133.019 36.8698 132.535 37.8273 132.028 38.6967L132.05 38.7077C132.975 37.9483 133.845 37.31 134.99 36.5286L138.063 34.4154L138.679 35.3069L131.346 40.3586L130.685 39.4011L132.81 34.5145C133.273 33.4359 133.779 32.3794 134.319 31.4549L134.286 31.4328C133.394 32.1262 132.535 32.7536 131.313 33.59L128.175 35.7472L127.547 34.8447Z" fill="black"/>
<path d="M133.945 45.1795L137.337 43.5066L140.684 38.708L141.268 39.8746L139.616 42.0868C139.165 42.6921 138.801 43.1654 138.361 43.6937L138.372 43.7157C138.999 43.6827 139.66 43.6937 140.42 43.7047L143.195 43.7597L143.778 44.9263L137.865 44.5191L134.463 46.203L133.945 45.1795Z" fill="black"/>
<path d="M143.348 56.7124C140.441 57.67 138.304 56.4153 137.589 54.2581C136.851 52.0239 138.062 49.8888 140.628 49.0413C143.314 48.1499 145.627 49.2394 146.365 51.4956C147.135 53.8069 145.858 55.887 143.348 56.7124ZM141.035 50.1969C139.229 50.7913 137.93 52.3101 138.503 54.027C139.075 55.7549 140.991 56.2062 142.918 55.5788C144.603 55.0285 146.067 53.5648 145.462 51.7488C144.867 49.9328 142.896 49.5806 141.035 50.1969Z" fill="black"/>
<path d="M139.703 61.1395L148.49 59.7197L148.688 60.9524L144.691 64.4853C143.766 65.2997 142.918 65.9601 142.093 66.5214L142.115 66.5434C143.271 66.2462 144.339 66.0481 145.704 65.828L149.382 65.2337L149.558 66.3012L140.771 67.721L140.584 66.5764L144.592 63.0655C145.473 62.2951 146.376 61.5467 147.257 60.9524L147.235 60.9194C146.134 61.1615 145.088 61.3596 143.623 61.5907L139.868 62.1961L139.703 61.1395Z" fill="black"/>
<path d="M145.261 75.8968L145.195 72.4409L141.991 72.507L142.068 76.359L141.099 76.381L141 71.3734L149.897 71.1973L149.996 76.0068L149.027 76.0289L148.95 72.3749L146.142 72.4299L146.208 75.8858L145.261 75.8968Z" fill="black"/>
<path d="M139.683 90.2383C139.551 89.7871 139.496 88.9176 139.683 87.85C140.135 85.3847 142.029 83.7999 144.902 84.3282C147.644 84.8234 149.175 87.0136 148.679 89.7321C148.481 90.8216 148.118 91.471 147.908 91.7461L147.039 91.3059C147.325 90.9097 147.589 90.3264 147.721 89.6C148.096 87.5419 147.028 85.946 144.726 85.5278C142.579 85.1426 140.982 86.1221 140.597 88.2573C140.476 88.9506 140.487 89.677 140.63 90.1723L139.683 90.2383Z" fill="black"/>
<path d="M140.798 95.4434L138.442 93.6714L138.816 92.5488L146.281 98.2499L145.841 99.5596L136.438 99.5926L136.834 98.426L139.796 98.415L140.798 95.4434ZM140.71 98.492L143.419 98.481C144.035 98.481 144.575 98.525 145.103 98.558L145.114 98.536C144.652 98.2389 144.189 97.9307 143.727 97.6005L141.569 95.9496L140.71 98.492Z" fill="black"/>
<path d="M135.288 102.278L143.205 106.362L142.632 107.473L137.314 107.946C136.08 108.056 135.012 108.078 134.01 108.034V108.067C135.111 108.519 136.091 108.992 137.325 109.63L140.639 111.336L140.144 112.305L132.227 108.222L132.755 107.187L138.073 106.747C139.241 106.648 140.419 106.593 141.476 106.637L141.487 106.593C140.463 106.13 139.494 105.668 138.184 104.986L134.803 103.236L135.288 102.278Z" fill="black"/>
<path d="M134.401 120.624C134.159 121.075 133.718 121.736 133.201 122.363C132.463 123.254 131.847 123.695 131.142 123.838C130.58 123.981 129.997 123.849 129.457 123.408C128.797 122.858 128.576 121.945 128.907 120.998L128.885 120.976C128.18 121.493 127.013 121.813 125.989 120.976C125.394 120.492 125.141 119.887 125.097 119.259C125.053 118.423 125.493 117.476 126.418 116.354C126.925 115.737 127.354 115.308 127.64 115.044L134.401 120.624ZM127.552 116.464C127.376 116.607 127.156 116.86 126.892 117.179C126.132 118.093 125.768 119.215 126.77 120.041C127.706 120.811 128.763 120.327 129.556 119.358L130.162 118.621L127.552 116.464ZM130.856 119.182L130.195 119.986C129.424 120.921 129.457 121.879 130.118 122.429C130.922 123.089 131.747 122.748 132.485 121.846C132.827 121.438 132.981 121.174 133.069 121.009L130.856 119.182Z" fill="black"/>
<path d="M121.301 127.845L123.822 125.478L121.62 123.134L118.801 125.776L118.141 125.071L121.796 121.648L127.886 128.142L124.373 131.433L123.712 130.728L126.388 128.23L124.461 126.172L121.939 128.538L121.301 127.845Z" fill="black"/>
<path d="M112.297 132.907L111.625 130.034L112.638 129.418L114.708 138.597L113.519 139.323L106.273 133.314L107.319 132.676L109.599 134.569L112.297 132.907ZM110.282 135.196L112.363 136.924C112.836 137.32 113.221 137.694 113.607 138.069L113.629 138.058C113.464 137.54 113.31 137.001 113.166 136.451L112.561 133.798L110.282 135.196Z" fill="black"/>
<path d="M103.654 134.613L107.111 142.824L105.955 143.308L101.573 140.259C100.56 139.555 99.7228 138.884 98.9741 138.212L98.9521 138.234C99.5136 139.291 99.9541 140.281 100.494 141.558L101.936 144.992L100.934 145.41L97.4766 137.2L98.5446 136.748L102.905 139.819C103.863 140.49 104.81 141.195 105.592 141.91L105.625 141.888C105.129 140.876 104.689 139.907 104.116 138.542L102.641 135.031L103.654 134.613Z" fill="black"/>
<path d="M92.2337 138.774L93.1807 142.428L97.1998 146.677L95.9335 147.007L94.0946 144.949C93.5881 144.387 93.2027 143.925 92.7733 143.397L92.7513 143.408C92.6522 144.035 92.509 144.674 92.3438 145.411L91.7272 148.107L90.4609 148.438L92.0686 142.737L91.1106 139.072L92.2337 138.774Z" fill="black"/>
<path d="M80.3681 148.779L83.0769 148.603L83.1429 149.582L76.5583 150L76.4922 149.021L79.2119 148.845L78.7054 140.932L79.8616 140.854L80.3681 148.779Z" fill="black"/>
<path d="M71.5677 149.89L71.843 146.181L67.5486 145.862L67.2734 149.571L66.1172 149.483L66.7779 140.612L67.934 140.7L67.6257 144.861L71.9201 145.18L72.2284 141.02L73.3735 141.108L72.7129 149.978L71.5677 149.89Z" fill="black"/>
<path d="M60.3438 148.512L62.0064 139.763L63.1406 139.983L61.4779 148.733L60.3438 148.512Z" fill="black"/>
<path d="M58.3871 139.027L55.7224 147.513L54.5222 147.139L53.1458 141.988C52.8265 140.799 52.6173 139.743 52.4851 138.752H52.4521C52.1988 139.919 51.9015 140.953 51.4831 142.285L50.371 145.84L49.3359 145.521L52.0006 137.035L53.1128 137.387L54.4561 142.538C54.7534 143.672 55.0177 144.816 55.1608 145.873H55.2049C55.4802 144.783 55.7775 143.76 56.2179 142.34L57.3521 138.708L58.3871 139.027Z" fill="black"/>
<path d="M42.4181 133.03C42.9576 133.096 44.0147 133.272 45.0828 133.801C46.294 134.395 47.1309 135.198 47.5493 136.332C47.9126 137.334 47.8025 138.61 47.1859 139.854C45.9967 142.231 43.4972 143.156 40.8215 141.835C39.8965 141.373 39.2799 140.822 39.0156 140.481L39.6763 139.766C40.0066 140.162 40.4691 140.58 41.2729 140.988C43.2109 141.945 45.0828 141.373 46.0738 139.37C47.0758 137.345 46.4482 135.551 44.5873 134.626C43.9156 134.296 43.3981 134.164 43.1118 134.164L41.9336 136.541L43.5522 137.345L43.1448 138.17L40.5131 136.871L42.4181 133.03Z" fill="black"/>
<path d="M34.3015 130.256L30.6458 135.44L29.6328 134.68L33.5748 129.717L34.3015 130.256ZM35.7 128.946C35.4137 129.332 34.9402 129.409 34.5878 129.133C34.2024 128.847 34.1694 128.396 34.4557 128.011C34.731 127.637 35.1935 127.538 35.5678 127.824C35.9312 128.099 35.9752 128.572 35.7 128.946Z" fill="black"/>
<path d="M25.7372 123.145L28.413 121.912L29.2278 122.782L20.6501 126.645L19.7031 125.632L24.1406 117.334L24.9775 118.236L23.5791 120.845L25.7372 123.145ZM23.0836 121.615L21.8063 124.004C21.52 124.543 21.2227 125.005 20.9364 125.445L20.9584 125.467C21.4319 125.203 21.9274 124.939 22.4449 124.697L24.9224 123.574L23.0836 121.615Z" fill="black"/>
<path d="M22.34 115.033L14.9956 120.063L14.2909 119.028L16.394 114.131C16.8785 112.997 17.363 112.04 17.8805 111.181L17.8585 111.17C16.9335 111.93 16.0527 112.557 14.9075 113.349L11.8354 115.451L11.2188 114.56L18.5632 109.53L19.2239 110.488L17.0877 115.374C16.6252 116.442 16.1187 117.51 15.5792 118.423L15.6122 118.445C16.5041 117.752 17.374 117.135 18.5962 116.299L21.7344 114.153L22.34 115.033Z" fill="black"/>
<path d="M15.947 104.655L12.5555 106.317L9.19712 111.105L8.62454 109.927L10.2762 107.715C10.7277 107.11 11.102 106.636 11.5315 106.108L11.5205 106.086C10.8928 106.119 10.2322 106.097 9.47239 106.086L6.69758 106.02L6.125 104.842L12.038 105.272L15.4404 103.599L15.947 104.655Z" fill="black"/>
<path d="M6.60348 93.1219C9.51042 92.1644 11.6356 93.4301 12.3513 95.5872C13.0891 97.8214 11.8668 99.9566 9.30121 100.793C6.61449 101.674 4.31315 100.584 3.56439 98.3277C2.81563 96.0165 4.09293 93.9474 6.60348 93.1219ZM8.8938 99.6374C10.6996 99.0431 11.9989 97.5353 11.4374 95.8184C10.8648 94.0905 8.94885 93.6282 7.03291 94.2555C5.3482 94.8058 3.88372 96.2586 4.47832 98.0746C5.07292 99.8906 7.03291 100.243 8.8938 99.6374Z" fill="black"/>
<path d="M10.258 88.6966L1.46012 90.0833L1.26192 88.8396L5.26999 85.3178C6.19493 84.5033 7.04279 83.843 7.87963 83.2817L7.85761 83.2597C6.70144 83.5458 5.63336 83.7439 4.25696 83.964L0.57923 84.5473L0.414062 83.4798L9.21198 82.082L9.39917 83.2266L5.3801 86.7265C4.49921 87.4969 3.58528 88.2453 2.70439 88.8396L2.72641 88.8727C3.82752 88.6305 4.8846 88.4434 6.33807 88.2123L10.0929 87.618L10.258 88.6966Z" fill="black"/>
<path d="M4.72379 73.9156L4.78986 77.3715L7.99411 77.3165L7.92804 73.4644L8.89702 73.4424L8.98511 78.4501L0.0880892 78.6041L0 73.7946L0.968983 73.7726L1.03505 77.4265L3.8429 77.3715L3.77683 73.9156H4.72379Z" fill="black"/>
<path d="M10.3395 59.5969C10.4717 60.0482 10.5267 60.9176 10.3285 61.9852C9.87706 64.4505 7.97213 66.0244 5.10922 65.4961C2.36744 64.9898 0.847902 62.7997 1.35442 60.0812C1.55262 58.9916 1.91598 58.3423 2.1252 58.0781L2.99508 58.5184C2.70879 58.9036 2.44452 59.4869 2.31239 60.2133C1.93801 62.2604 2.99508 63.8672 5.29641 64.2855C7.44359 64.6817 9.04021 63.7021 9.43661 61.567C9.56875 60.8846 9.54672 60.1472 9.41459 59.652L10.3395 59.5969Z" fill="black"/>
<path d="M9.257 54.3904L11.6134 56.1624L11.228 57.285L3.77344 51.5619L4.2249 50.2522L13.6394 50.2412L13.243 51.4078H10.281L9.257 54.3904ZM9.34509 51.3308H6.63634C6.01971 51.3308 5.48017 51.2868 4.95163 51.2427L4.94062 51.2648C5.40309 51.5619 5.86556 51.8701 6.32803 52.2113L8.48622 53.8622L9.34509 51.3308Z" fill="black"/>
<path d="M14.7888 47.5559L6.88281 43.4507L7.46641 42.3391L12.7848 41.8879C14.018 41.7888 15.0861 41.7558 16.0881 41.7998V41.7668C14.987 41.3156 14.007 40.8313 12.7738 40.193L9.47044 38.4761L9.96594 37.5186L17.872 41.6238L17.3324 42.6583L12.014 43.0765C10.8468 43.1646 9.66864 43.2306 8.61157 43.1866L8.60055 43.2306C9.62459 43.6929 10.5936 44.1551 11.9039 44.8485L15.2843 46.6094L14.7888 47.5559Z" fill="black"/>
<path d="M15.7266 29.2425C15.9688 28.7913 16.4093 28.1309 16.9268 27.5036C17.6645 26.6231 18.2812 26.1719 18.9859 26.0398C19.5474 25.9078 20.131 26.0288 20.6706 26.4691C21.3312 27.0193 21.5515 27.9328 21.2101 28.8793L21.2321 28.9014C21.9369 28.3841 23.104 28.0759 24.1171 28.9124C24.7117 29.3966 24.9649 30.0019 25.009 30.6293C25.053 31.4657 24.6126 32.4122 23.6876 33.5238C23.1811 34.1292 22.7517 34.5694 22.4654 34.8335L15.7266 29.2425ZM19.2611 30.6843L19.9218 29.8809C20.6926 28.9454 20.6706 27.9879 20.0099 27.4486C19.2061 26.7882 18.3803 27.1294 17.6425 28.0209C17.3012 28.4281 17.147 28.6812 17.0589 28.8573L19.2611 30.6843ZM22.5425 33.4138C22.7187 33.2707 22.9389 33.0176 23.2031 32.7094C23.9629 31.7959 24.3263 30.6733 23.3353 29.8479C22.3993 29.0664 21.3423 29.5507 20.5495 30.5192L19.9438 31.2456L22.5425 33.4138Z" fill="black"/>
<path d="M28.8457 22.0345L26.3131 24.3897L28.5043 26.734L31.3232 24.1036L31.9839 24.808L28.3172 28.2198L22.25 21.7153L25.7626 18.4355L26.4232 19.1399L23.7475 21.6383L25.6635 23.6964L28.196 21.3411L28.8457 22.0345Z" fill="black"/>
<path d="M37.8816 16.9936L38.5533 19.8661L37.5403 20.4824L35.4922 11.3035L36.6814 10.5771L43.9047 16.6084L42.8587 17.2467L40.5904 15.3537L37.8816 16.9936ZM39.9077 14.7044L37.8266 12.9654C37.3531 12.5692 36.9677 12.184 36.5823 11.8208L36.5603 11.8318C36.7254 12.3491 36.8796 12.8884 37.0117 13.4387L37.6063 16.0911L39.9077 14.7044Z" fill="black"/>
<path d="M46.4745 15.3317L43.0391 7.11027L44.1952 6.62601L48.5667 9.68565C49.5797 10.39 50.4165 11.0614 51.1543 11.7438L51.1763 11.7217C50.6258 10.6652 50.1743 9.67464 49.6458 8.39796L48.2143 4.96412L49.2163 4.5459L52.6518 12.7673L51.5837 13.2185L47.2343 10.1369C46.2763 9.46553 45.3404 8.75015 44.5476 8.03477L44.5146 8.05678C45.0101 9.06932 45.4395 10.0488 46.0121 11.4136L47.4656 14.9134L46.4745 15.3317Z" fill="black"/>
<path d="M57.9472 11.1944L57.0003 7.52946L52.9922 3.27018L54.2585 2.94L56.0863 5.00911C56.5928 5.58142 56.9782 6.03266 57.3967 6.57195L57.4187 6.56094C57.5178 5.93361 57.6719 5.29526 57.8261 4.55787L58.4868 1.86143L59.753 1.53125L58.1344 7.2323L59.0814 10.9083L57.9472 11.1944Z" fill="black"/>
<path d="M69.8419 1.22165L67.1332 1.38674L67.0781 0.407218L73.6628 0L73.7179 0.979524L70.9981 1.14461L71.4826 9.05785L70.3264 9.12388L69.8419 1.22165Z" fill="black"/>
<path d="M78.6482 0.120274L78.3619 3.82926L82.6562 4.15944L82.9425 0.450451L84.0987 0.538498L83.416 9.40925L82.2598 9.3212L82.5791 5.16097L78.2848 4.83079L77.9655 8.99102L76.8203 8.90297L77.503 0.0322266L78.6482 0.120274Z" fill="black"/>
<path d="M89.8625 1.54043L88.1778 10.2791L87.0547 10.059L88.7394 1.32031L89.8625 1.54043Z" fill="black"/>
<path d="M91.8047 11.0402L94.5024 2.55469L95.7026 2.93989L97.057 8.10166C97.3763 9.3013 97.5745 10.3469 97.7067 11.3484H97.7397C98.004 10.1818 98.3013 9.14722 98.7197 7.8155L99.8428 4.2606L100.878 4.56877L98.1802 13.0543L97.068 12.7021L95.7357 7.54036C95.4384 6.40675 95.1851 5.26214 95.053 4.20557H95.0089C94.7337 5.29515 94.4364 6.32971 93.9849 7.73846L92.8287 11.3704L91.8047 11.0402Z" fill="black"/>
<path d="M107.737 17.0704C107.197 17.0043 106.151 16.8282 105.072 16.289C103.861 15.6836 103.024 14.8802 102.617 13.7466C102.264 12.7451 102.363 11.4684 102.98 10.2247C104.18 7.85844 106.68 6.93394 109.344 8.26566C110.269 8.7279 110.886 9.28921 111.15 9.61938L110.479 10.3348C110.148 9.93855 109.697 9.50932 108.882 9.11311C106.944 8.14459 105.072 8.7169 104.081 10.72C103.068 12.7451 103.696 14.539 105.557 15.4635C106.228 15.8047 106.735 15.9368 107.032 15.9368L108.221 13.5595L106.603 12.7561L107.021 11.9306L109.642 13.2403L107.737 17.0704Z" fill="black"/>
<path d="M114.424 21.1754C114.71 20.7902 115.183 20.7131 115.536 20.9883C115.921 21.2744 115.954 21.7257 115.668 22.1109C115.393 22.4851 114.93 22.5841 114.556 22.298C114.181 22.0118 114.148 21.5386 114.424 21.1754ZM115.822 19.8547L119.478 14.6709L120.491 15.4303L116.538 20.394L115.822 19.8547Z" fill="black"/>
</svg>
