<svg width="138" height="138" viewBox="0 0 138 138" fill="none" xmlns="http://www.w3.org/2000/svg">
<path d="M113.623 25.15L111.193 26.28L110.453 25.49L118.223 21.96L119.083 22.88L115.083 30.42L114.323 29.61L115.583 27.24L113.623 25.15ZM116.023 26.52L117.173 24.35C117.433 23.86 117.703 23.44 117.963 23.03L117.943 23.01C117.513 23.25 117.063 23.49 116.593 23.71L114.343 24.73L116.023 26.52Z" fill="white"/>
<path d="M116.734 32.51L123.394 27.92L124.044 28.86L122.144 33.32C121.704 34.35 121.264 35.22 120.804 36.01L120.824 36.02C121.664 35.33 122.454 34.75 123.494 34.04L126.284 32.12L126.844 32.93L120.184 37.52L119.584 36.65L121.514 32.21C121.934 31.23 122.394 30.27 122.884 29.43L122.854 29.41C122.044 30.04 121.264 30.61 120.154 31.37L117.304 33.33L116.734 32.51Z" fill="white"/>
<path d="M122.539 41.9L125.619 40.38L128.659 36.02L129.189 37.08L127.689 39.09C127.279 39.64 126.949 40.07 126.549 40.55L126.559 40.57C127.129 40.54 127.729 40.55 128.419 40.56L130.939 40.61L131.469 41.67L126.099 41.3L123.009 42.83L122.539 41.9Z" fill="white"/>
<path d="M131.072 52.38C128.432 53.25 126.492 52.11 125.842 50.15C125.172 48.12 126.272 46.18 128.602 45.41C131.042 44.6 133.142 45.59 133.812 47.64C134.512 49.74 133.352 51.63 131.072 52.38ZM128.972 46.46C127.332 47 126.152 48.38 126.672 49.94C127.192 51.51 128.932 51.92 130.682 51.35C132.212 50.85 133.542 49.52 132.992 47.87C132.452 46.22 130.662 45.9 128.972 46.46Z" fill="white"/>
<path d="M127.75 56.4L135.73 55.11L135.91 56.23L132.28 59.44C131.44 60.18 130.67 60.78 129.92 61.29L129.94 61.31C130.99 61.04 131.96 60.86 133.2 60.66L136.54 60.12L136.7 61.09L128.72 62.38L128.55 61.34L132.19 58.15C132.99 57.45 133.81 56.77 134.61 56.23L134.59 56.2C133.59 56.42 132.64 56.6 131.31 56.81L127.9 57.36L127.75 56.4Z" fill="white"/>
<path d="M132.823 69.81L132.763 66.67L129.853 66.73L129.923 70.23L129.043 70.25L128.953 65.7L137.033 65.54L137.123 69.91L136.243 69.93L136.173 66.61L133.623 66.66L133.683 69.8L132.823 69.81Z" fill="white"/>
<path d="M127.75 82.84C127.63 82.43 127.58 81.64 127.75 80.67C128.16 78.43 129.88 76.99 132.49 77.47C134.98 77.92 136.37 79.91 135.92 82.38C135.74 83.37 135.41 83.96 135.22 84.21L134.43 83.81C134.69 83.45 134.93 82.92 135.05 82.26C135.39 80.39 134.42 78.94 132.33 78.56C130.38 78.21 128.93 79.1 128.58 81.04C128.47 81.67 128.48 82.33 128.61 82.78L127.75 82.84Z" fill="white"/>
<path d="M128.757 87.57L126.617 85.96L126.957 84.94L133.737 90.12L133.337 91.31L124.797 91.34L125.157 90.28L127.847 90.27L128.757 87.57ZM128.677 90.34L131.137 90.33C131.697 90.33 132.187 90.37 132.667 90.4L132.677 90.38C132.257 90.11 131.837 89.83 131.417 89.53L129.457 88.03L128.677 90.34Z" fill="white"/>
<path d="M123.749 93.78L130.939 97.49L130.419 98.5L125.589 98.93C124.469 99.03 123.499 99.05 122.589 99.01V99.04C123.589 99.45 124.479 99.88 125.599 100.46L128.609 102.01L128.159 102.89L120.969 99.18L121.449 98.24L126.279 97.84C127.339 97.75 128.409 97.7 129.369 97.74L129.379 97.7C128.449 97.28 127.569 96.86 126.379 96.24L123.309 94.65L123.749 93.78Z" fill="white"/>
<path d="M122.953 110.45C122.733 110.86 122.333 111.46 121.863 112.03C121.193 112.84 120.633 113.24 119.993 113.37C119.483 113.5 118.953 113.38 118.463 112.98C117.863 112.48 117.663 111.65 117.963 110.79L117.943 110.77C117.303 111.24 116.243 111.53 115.313 110.77C114.773 110.33 114.543 109.78 114.503 109.21C114.463 108.45 114.863 107.59 115.703 106.57C116.163 106.01 116.553 105.62 116.813 105.38L122.953 110.45ZM116.733 106.67C116.573 106.8 116.373 107.03 116.133 107.32C115.443 108.15 115.113 109.17 116.023 109.92C116.873 110.62 117.833 110.18 118.553 109.3L119.103 108.63L116.733 106.67ZM119.733 109.14L119.133 109.87C118.433 110.72 118.463 111.59 119.063 112.09C119.793 112.69 120.543 112.38 121.213 111.56C121.523 111.19 121.663 110.95 121.743 110.8L119.733 109.14Z" fill="white"/>
<path d="M111.057 117.01L113.347 114.86L111.347 112.73L108.787 115.13L108.188 114.49L111.507 111.38L117.037 117.28L113.847 120.27L113.247 119.63L115.677 117.36L113.927 115.49L111.637 117.64L111.057 117.01Z" fill="white"/>
<path d="M102.868 121.61L102.258 119L103.178 118.44L105.058 126.78L103.978 127.44L97.3984 121.98L98.3484 121.4L100.418 123.12L102.868 121.61ZM101.038 123.69L102.928 125.26C103.358 125.62 103.708 125.96 104.058 126.3L104.078 126.29C103.928 125.82 103.788 125.33 103.658 124.83L103.108 122.42L101.038 123.69Z" fill="white"/>
<path d="M95.0319 123.16L98.1719 130.62L97.1219 131.06L93.1419 128.29C92.2219 127.65 91.4619 127.04 90.7819 126.43L90.7619 126.45C91.2719 127.41 91.6719 128.31 92.1619 129.47L93.4719 132.59L92.5619 132.97L89.4219 125.51L90.3919 125.1L94.3519 127.89C95.2219 128.5 96.0819 129.14 96.7919 129.79L96.8219 129.77C96.3719 128.85 95.9719 127.97 95.4519 126.73L94.1119 123.54L95.0319 123.16Z" fill="white"/>
<path d="M84.6491 126.94L85.5091 130.26L89.1591 134.12L88.0091 134.42L86.3391 132.55C85.8791 132.04 85.5291 131.62 85.1391 131.14L85.1191 131.15C85.0291 131.72 84.8991 132.3 84.7491 132.97L84.1891 135.42L83.0391 135.72L84.4991 130.54L83.6291 127.21L84.6491 126.94Z" fill="white"/>
<path d="M73.8716 136.03L76.3316 135.87L76.3916 136.76L70.4116 137.14L70.3516 136.25L72.8216 136.09L72.3616 128.9L73.4116 128.83L73.8716 136.03Z" fill="white"/>
<path d="M65.8797 137.04L66.1297 133.67L62.2297 133.38L61.9797 136.75L60.9297 136.67L61.5297 128.61L62.5797 128.69L62.2997 132.47L66.1997 132.76L66.4797 128.98L67.5197 129.06L66.9197 137.12L65.8797 137.04Z" fill="white"/>
<path d="M55.6875 135.79L57.1975 127.84L58.2275 128.04L56.7175 135.99L55.6875 135.79Z" fill="white"/>
<path d="M53.9231 127.17L51.5031 134.88L50.4131 134.54L49.1631 129.86C48.8731 128.78 48.6831 127.82 48.5631 126.92H48.5331C48.3031 127.98 48.0331 128.92 47.6531 130.13L46.6431 133.36L45.7031 133.07L48.1231 125.36L49.1331 125.68L50.3531 130.36C50.6231 131.39 50.8631 132.43 50.9931 133.39H51.0331C51.2831 132.4 51.5531 131.47 51.9531 130.18L52.9831 126.88L53.9231 127.17Z" fill="white"/>
<path d="M39.4103 121.72C39.9003 121.78 40.8603 121.94 41.8303 122.42C42.9303 122.96 43.6903 123.69 44.0703 124.72C44.4003 125.63 44.3003 126.79 43.7403 127.92C42.6603 130.08 40.3903 130.92 37.9603 129.72C37.1203 129.3 36.5603 128.8 36.3203 128.49L36.9203 127.84C37.2203 128.2 37.6403 128.58 38.3703 128.95C40.1303 129.82 41.8303 129.3 42.7303 127.48C43.6403 125.64 43.0703 124.01 41.3803 123.17C40.7703 122.87 40.3003 122.75 40.0403 122.75L38.9703 124.91L40.4403 125.64L40.0703 126.39L37.6803 125.21L39.4103 121.72Z" fill="white"/>
<path d="M32.0525 119.2L28.7325 123.91L27.8125 123.22L31.3925 118.71L32.0525 119.2ZM33.3225 118.01C33.0625 118.36 32.6325 118.43 32.3125 118.18C31.9625 117.92 31.9325 117.51 32.1925 117.16C32.4425 116.82 32.8625 116.73 33.2025 116.99C33.5325 117.24 33.5725 117.67 33.3225 118.01Z" fill="white"/>
<path d="M24.2691 112.74L26.6991 111.62L27.4391 112.41L19.6491 115.92L18.7891 115L22.8191 107.46L23.5791 108.28L22.3091 110.65L24.2691 112.74ZM21.8591 111.35L20.6991 113.52C20.4391 114.01 20.1691 114.43 19.9091 114.83L19.9291 114.85C20.3591 114.61 20.8091 114.37 21.2791 114.15L23.5291 113.13L21.8591 111.35Z" fill="white"/>
<path d="M21.1781 105.37L14.5081 109.94L13.8681 109L15.7781 104.55C16.2181 103.52 16.6581 102.65 17.1281 101.87L17.1081 101.86C16.2681 102.55 15.4681 103.12 14.4281 103.84L11.6381 105.75L11.0781 104.94L17.7481 100.37L18.3481 101.24L16.4081 105.68C15.9881 106.65 15.5281 107.62 15.0381 108.45L15.0681 108.47C15.8781 107.84 16.6681 107.28 17.7781 106.52L20.6281 104.57L21.1781 105.37Z" fill="white"/>
<path d="M15.3731 95.94L12.2931 97.45L9.24312 101.8L8.72313 100.73L10.2231 98.72C10.6331 98.17 10.9731 97.74 11.3631 97.26L11.3531 97.24C10.7831 97.27 10.1831 97.25 9.49312 97.24L6.97313 97.18L6.45312 96.11L11.8231 96.5L14.9131 94.98L15.3731 95.94Z" fill="white"/>
<path d="M6.89079 85.46C9.53079 84.59 11.4608 85.74 12.1108 87.7C12.7808 89.73 11.6708 91.67 9.34079 92.43C6.90079 93.23 4.81079 92.24 4.13079 90.19C3.45079 88.09 4.61079 86.21 6.89079 85.46ZM8.97079 91.38C10.6108 90.84 11.7908 89.47 11.2808 87.91C10.7608 86.34 9.02079 85.92 7.28079 86.49C5.75079 86.99 4.42079 88.31 4.96079 89.96C5.50079 91.61 7.28079 91.93 8.97079 91.38Z" fill="white"/>
<path d="M10.2134 81.44L2.22344 82.7L2.04344 81.57L5.68344 78.37C6.52344 77.63 7.29344 77.03 8.05344 76.52L8.03344 76.5C6.98344 76.76 6.01344 76.94 4.76344 77.14L1.42344 77.67L1.27344 76.7L9.26344 75.43L9.43344 76.47L5.78344 79.65C4.98344 80.35 4.15344 81.03 3.35344 81.57L3.37344 81.6C4.37344 81.38 5.33344 81.21 6.65344 81L10.0634 80.46L10.2134 81.44Z" fill="white"/>
<path d="M5.18063 68.01L5.24062 71.15L8.15062 71.1L8.09063 67.6L8.97062 67.58L9.05062 72.13L0.970625 72.27L0.890625 67.9L1.77063 67.88L1.83063 71.2L4.38063 71.15L4.32062 68.01H5.18063Z" fill="white"/>
<path d="M10.2868 55C10.4068 55.41 10.4568 56.2 10.2768 57.17C9.86679 59.41 8.13679 60.84 5.53679 60.36C3.04679 59.9 1.66679 57.91 2.12679 55.44C2.30679 54.45 2.63679 53.86 2.82679 53.62L3.61679 54.02C3.35679 54.37 3.11679 54.9 2.99679 55.56C2.65679 57.42 3.61679 58.88 5.70679 59.26C7.65679 59.62 9.10679 58.73 9.46679 56.79C9.58679 56.17 9.56679 55.5 9.44679 55.05L10.2868 55Z" fill="white"/>
<path d="M9.2925 50.27L11.4325 51.88L11.0825 52.9L4.3125 47.7L4.7225 46.51L13.2725 46.5L12.9125 47.56H10.2225L9.2925 50.27ZM9.3725 47.49H6.9125C6.3525 47.49 5.8625 47.45 5.3825 47.41L5.3725 47.43C5.7925 47.7 6.2125 47.98 6.6325 48.29L8.5925 49.79L9.3725 47.49Z" fill="white"/>
<path d="M14.3284 44.06L7.14844 40.33L7.67844 39.32L12.5084 38.91C13.6284 38.82 14.5984 38.79 15.5084 38.83V38.8C14.5084 38.39 13.6184 37.95 12.4984 37.37L9.49844 35.81L9.94844 34.94L17.1284 38.67L16.6384 39.61L11.8084 39.99C10.7484 40.07 9.67844 40.13 8.71844 40.09L8.70844 40.13C9.63844 40.55 10.5184 40.97 11.7084 41.6L14.7784 43.2L14.3284 44.06Z" fill="white"/>
<path d="M15.1719 27.42C15.3919 27.01 15.7919 26.41 16.2619 25.84C16.9319 25.04 17.4919 24.63 18.1319 24.51C18.6419 24.39 19.1719 24.5 19.6619 24.9C20.2619 25.4 20.4619 26.23 20.1519 27.09L20.1719 27.11C20.8119 26.64 21.8719 26.36 22.7919 27.12C23.3319 27.56 23.5619 28.11 23.6019 28.68C23.6419 29.44 23.2419 30.3 22.4019 31.31C21.9419 31.86 21.5519 32.26 21.2919 32.5L15.1719 27.42ZM18.3819 28.73L18.9819 28C19.6819 27.15 19.6619 26.28 19.0619 25.79C18.3319 25.19 17.5819 25.5 16.9119 26.31C16.6019 26.68 16.4619 26.91 16.3819 27.07L18.3819 28.73ZM21.3619 31.21C21.5219 31.08 21.7219 30.85 21.9619 30.57C22.6519 29.74 22.9819 28.72 22.0819 27.97C21.2319 27.26 20.2719 27.7 19.5519 28.58L19.0019 29.24L21.3619 31.21Z" fill="white"/>
<path d="M27.0837 20.87L24.7838 23.01L26.7738 25.14L29.3338 22.75L29.9338 23.39L26.6038 26.49L21.0938 20.58L24.2838 17.6L24.8837 18.24L22.4538 20.51L24.1938 22.38L26.4937 20.24L27.0837 20.87Z" fill="white"/>
<path d="M35.2872 16.29L35.8972 18.9L34.9772 19.46L33.1172 11.12L34.1972 10.46L40.7572 15.94L39.8072 16.52L37.7472 14.8L35.2872 16.29ZM37.1272 14.21L35.2372 12.63C34.8072 12.27 34.4572 11.92 34.1072 11.59L34.0872 11.6C34.2372 12.07 34.3772 12.56 34.4972 13.06L35.0372 15.47L37.1272 14.21Z" fill="white"/>
<path d="M43.1044 14.78L39.9844 7.30998L41.0344 6.86998L45.0044 9.64998C45.9244 10.29 46.6844 10.9 47.3544 11.52L47.3744 11.5C46.8744 10.54 46.4644 9.63998 45.9844 8.47998L44.6844 5.35998L45.5944 4.97998L48.7144 12.45L47.7444 12.86L43.7944 10.06C42.9244 9.44998 42.0744 8.79998 41.3544 8.14998L41.3244 8.16998C41.7744 9.08998 42.1644 9.97998 42.6844 11.22L44.0044 14.4L43.1044 14.78Z" fill="white"/>
<path d="M53.5078 11.02L52.6478 7.68999L49.0078 3.81999L50.1578 3.51999L51.8178 5.39999C52.2778 5.91999 52.6278 6.32999 53.0078 6.81999L53.0278 6.80999C53.1178 6.23999 53.2578 5.65999 53.3978 4.98999L53.9978 2.53999L55.1478 2.23999L53.6778 7.41999L54.5378 10.76L53.5078 11.02Z" fill="white"/>
<path d="M64.3225 1.95998L61.8625 2.10998L61.8125 1.21998L67.7925 0.849976L67.8425 1.73998L65.3725 1.88998L65.8125 9.07998L64.7625 9.13998L64.3225 1.95998Z" fill="white"/>
<path d="M72.3084 0.960005L72.0484 4.33L75.9484 4.63L76.2084 1.26L77.2584 1.34L76.6384 9.4L75.5884 9.32L75.8784 5.54L71.9784 5.24L71.6884 9.02001L70.6484 8.94L71.2684 0.880005L72.3084 0.960005Z" fill="white"/>
<path d="M82.4875 2.24999L80.9575 10.19L79.9375 9.98999L81.4675 2.04999L82.4875 2.24999Z" fill="white"/>
<path d="M84.2578 10.88L86.7078 3.16998L87.7978 3.51998L89.0278 8.20998C89.3178 9.29998 89.4978 10.25 89.6178 11.16H89.6478C89.8878 10.1 90.1578 9.15998 90.5378 7.94998L91.5578 4.71998L92.4978 4.99998L90.0478 12.71L89.0378 12.39L87.8278 7.69998C87.5578 6.66998 87.3278 5.62998 87.2078 4.66998H87.1678C86.9178 5.65998 86.6478 6.59998 86.2378 7.87998L85.1878 11.18L84.2578 10.88Z" fill="white"/>
<path d="M98.7245 16.36C98.2345 16.3 97.2845 16.14 96.3045 15.65C95.2045 15.1 94.4445 14.37 94.0745 13.34C93.7545 12.43 93.8445 11.27 94.4045 10.14C95.4945 7.98996 97.7645 7.14996 100.185 8.35996C101.025 8.77996 101.585 9.28996 101.825 9.58996L101.215 10.24C100.915 9.87996 100.505 9.48996 99.7645 9.12996C98.0045 8.24996 96.3045 8.76996 95.4045 10.59C94.4845 12.43 95.0545 14.06 96.7445 14.9C97.3545 15.21 97.8145 15.33 98.0845 15.33L99.1645 13.17L97.6945 12.44L98.0745 11.69L100.455 12.88L98.7245 16.36Z" fill="white"/>
<path d="M104.813 20.09C105.073 19.74 105.503 19.67 105.823 19.92C106.173 20.18 106.203 20.59 105.943 20.94C105.693 21.28 105.273 21.37 104.933 21.11C104.593 20.85 104.563 20.42 104.813 20.09ZM106.083 18.89L109.403 14.18L110.323 14.87L106.733 19.38L106.083 18.89Z" fill="white"/>
</svg>
