<?xml version="1.0" encoding="utf-8"?>
<!-- Generator: Adobe Illustrator 25.0.0, SVG Export Plug-In . SVG Version: 6.00 Build 0)  -->
<svg version="1.1" id="Layer_1" xmlns="http://www.w3.org/2000/svg" xmlns:xlink="http://www.w3.org/1999/xlink" x="0px" y="0px"
	 viewBox="0 0 147 147" style="enable-background:new 0 0 147 147;" xml:space="preserve">
<g>
	<path d="M117.62,30.15l-2.43,1.13l-0.74-0.79l7.77-3.53l0.86,0.92l-4,7.54l-0.76-0.81l1.26-2.37L117.62,30.15z M120.02,31.52
		l1.15-2.17c0.26-0.49,0.53-0.91,0.79-1.32l-0.02-0.02c-0.43,0.24-0.88,0.48-1.35,0.7l-2.25,1.02L120.02,31.52z"/>
	<path d="M120.73,37.51l6.66-4.59l0.65,0.94l-1.9,4.46c-0.44,1.03-0.88,1.9-1.34,2.69l0.02,0.01c0.84-0.69,1.63-1.27,2.67-1.98
		l2.79-1.92l0.56,0.81l-6.66,4.59l-0.6-0.87l1.93-4.44c0.42-0.98,0.88-1.94,1.37-2.78l-0.03-0.02c-0.81,0.63-1.59,1.2-2.7,1.96
		l-2.85,1.96L120.73,37.51z"/>
	<path d="M126.54,46.9l3.08-1.52l3.04-4.36l0.53,1.06l-1.5,2.01c-0.41,0.55-0.74,0.98-1.14,1.46l0.01,0.02
		c0.57-0.03,1.17-0.02,1.86-0.01l2.52,0.05l0.53,1.06l-5.37-0.37l-3.09,1.53L126.54,46.9z"/>
	<path d="M135.07,57.38c-2.64,0.87-4.58-0.27-5.23-2.23c-0.67-2.03,0.43-3.97,2.76-4.74c2.44-0.81,4.54,0.18,5.21,2.23
		C138.51,54.74,137.35,56.63,135.07,57.38z M132.97,51.46c-1.64,0.54-2.82,1.92-2.3,3.48c0.52,1.57,2.26,1.98,4.01,1.41
		c1.53-0.5,2.86-1.83,2.31-3.48C136.45,51.22,134.66,50.9,132.97,51.46z"/>
	<path d="M131.75,61.4l7.98-1.29l0.18,1.12l-3.63,3.21c-0.84,0.74-1.61,1.34-2.36,1.85l0.02,0.02c1.05-0.27,2.02-0.45,3.26-0.65
		l3.34-0.54l0.16,0.97l-7.98,1.29l-0.17-1.04l3.64-3.19c0.8-0.7,1.62-1.38,2.42-1.92l-0.02-0.03c-1,0.22-1.95,0.4-3.28,0.61
		l-3.41,0.55L131.75,61.4z"/>
	<path d="M136.82,74.81l-0.06-3.14l-2.91,0.06l0.07,3.5l-0.88,0.02l-0.09-4.55l8.08-0.16l0.09,4.37l-0.88,0.02l-0.07-3.32
		l-2.55,0.05l0.06,3.14L136.82,74.81z"/>
	<path d="M131.75,87.84c-0.12-0.41-0.17-1.2,0-2.17c0.41-2.24,2.13-3.68,4.74-3.2c2.49,0.45,3.88,2.44,3.43,4.91
		c-0.18,0.99-0.51,1.58-0.7,1.83l-0.79-0.4c0.26-0.36,0.5-0.89,0.62-1.55c0.34-1.87-0.63-3.32-2.72-3.7
		c-1.95-0.35-3.4,0.54-3.75,2.48c-0.11,0.63-0.1,1.29,0.03,1.74L131.75,87.84z"/>
	<path d="M132.76,92.57l-2.14-1.61l0.34-1.02l6.78,5.18l-0.4,1.19l-8.54,0.03l0.36-1.06l2.69-0.01L132.76,92.57z M132.68,95.34
		l2.46-0.01c0.56,0,1.05,0.04,1.53,0.07l0.01-0.02c-0.42-0.27-0.84-0.55-1.26-0.85l-1.96-1.5L132.68,95.34z"/>
	<path d="M127.75,98.78l7.19,3.71l-0.52,1.01l-4.83,0.43c-1.12,0.1-2.09,0.12-3,0.08v0.03c1,0.41,1.89,0.84,3.01,1.42l3.01,1.55
		l-0.45,0.88l-7.19-3.71l0.48-0.94l4.83-0.4c1.06-0.09,2.13-0.14,3.09-0.1l0.01-0.04c-0.93-0.42-1.81-0.84-3-1.46l-3.07-1.59
		L127.75,98.78z"/>
	<path d="M126.95,115.45c-0.22,0.41-0.62,1.01-1.09,1.58c-0.67,0.81-1.23,1.21-1.87,1.34c-0.51,0.13-1.04,0.01-1.53-0.39
		c-0.6-0.5-0.8-1.33-0.5-2.19l-0.02-0.02c-0.64,0.47-1.7,0.76-2.63,0c-0.54-0.44-0.77-0.99-0.81-1.56c-0.04-0.76,0.36-1.62,1.2-2.64
		c0.46-0.56,0.85-0.95,1.11-1.19L126.95,115.45z M120.73,111.67c-0.16,0.13-0.36,0.36-0.6,0.65c-0.69,0.83-1.02,1.85-0.11,2.6
		c0.85,0.7,1.81,0.26,2.53-0.62l0.55-0.67L120.73,111.67z M123.73,114.14l-0.6,0.73c-0.7,0.85-0.67,1.72-0.07,2.22
		c0.73,0.6,1.48,0.29,2.15-0.53c0.31-0.37,0.45-0.61,0.53-0.76L123.73,114.14z"/>
	<path d="M115.06,122.01l2.29-2.15l-2-2.13l-2.56,2.4l-0.6-0.64l3.32-3.11l5.53,5.9l-3.19,2.99l-0.6-0.64l2.43-2.27l-1.75-1.87
		l-2.29,2.15L115.06,122.01z"/>
	<path d="M106.87,126.61l-0.61-2.61l0.92-0.56l1.88,8.34l-1.08,0.66l-6.58-5.46l0.95-0.58l2.07,1.72L106.87,126.61z M105.04,128.69
		l1.89,1.57c0.43,0.36,0.78,0.7,1.13,1.04l0.02-0.01c-0.15-0.47-0.29-0.96-0.42-1.46l-0.55-2.41L105.04,128.69z"/>
	<path d="M99.03,128.16l3.14,7.46l-1.05,0.44l-3.98-2.77c-0.92-0.64-1.68-1.25-2.36-1.86l-0.02,0.02c0.51,0.96,0.91,1.86,1.4,3.02
		l1.31,3.12l-0.91,0.38l-3.14-7.46l0.97-0.41l3.96,2.79c0.87,0.61,1.73,1.25,2.44,1.9l0.03-0.02c-0.45-0.92-0.85-1.8-1.37-3.04
		l-1.34-3.19L99.03,128.16z"/>
	<path d="M88.65,131.94l0.86,3.32l3.65,3.86l-1.15,0.3l-1.67-1.87c-0.46-0.51-0.81-0.93-1.2-1.41l-0.02,0.01
		c-0.09,0.57-0.22,1.15-0.37,1.82l-0.56,2.45l-1.15,0.3l1.46-5.18l-0.87-3.33L88.65,131.94z"/>
	<path d="M77.87,141.03l2.46-0.16l0.06,0.89l-5.98,0.38l-0.06-0.89l2.47-0.16l-0.46-7.19l1.05-0.07L77.87,141.03z"/>
	<path d="M69.88,142.04l0.25-3.37l-3.9-0.29l-0.25,3.37l-1.05-0.08l0.6-8.06l1.05,0.08l-0.28,3.78l3.9,0.29l0.28-3.78l1.04,0.08
		l-0.6,8.06L69.88,142.04z"/>
	<path d="M59.69,140.79l1.51-7.95l1.03,0.2l-1.51,7.95L59.69,140.79z"/>
	<path d="M57.92,132.17l-2.42,7.71l-1.09-0.34l-1.25-4.68c-0.29-1.08-0.48-2.04-0.6-2.94l-0.03,0c-0.23,1.06-0.5,2-0.88,3.21
		l-1.01,3.23l-0.94-0.29l2.42-7.71l1.01,0.32l1.22,4.68c0.27,1.03,0.51,2.07,0.64,3.03l0.04,0c0.25-0.99,0.52-1.92,0.92-3.21
		l1.03-3.3L57.92,132.17z"/>
	<path d="M43.41,126.72c0.49,0.06,1.45,0.22,2.42,0.7c1.1,0.54,1.86,1.27,2.24,2.3c0.33,0.91,0.23,2.07-0.33,3.2
		c-1.08,2.16-3.35,3-5.78,1.8c-0.84-0.42-1.4-0.92-1.64-1.23l0.6-0.65c0.3,0.36,0.72,0.74,1.45,1.11c1.76,0.87,3.46,0.35,4.36-1.47
		c0.91-1.84,0.34-3.47-1.35-4.31c-0.61-0.3-1.08-0.42-1.34-0.42l-1.07,2.16l1.47,0.73l-0.37,0.75l-2.39-1.18L43.41,126.72z"/>
	<path d="M36.05,124.2l-3.32,4.71l-0.92-0.69l3.58-4.51L36.05,124.2z M37.32,123.01c-0.26,0.35-0.69,0.42-1.01,0.17
		c-0.35-0.26-0.38-0.67-0.12-1.02c0.25-0.34,0.67-0.43,1.01-0.17C37.53,122.24,37.57,122.67,37.32,123.01z"/>
	<path d="M28.27,117.74l2.43-1.12l0.74,0.79l-7.79,3.51L22.79,120l4.03-7.54l0.76,0.82l-1.27,2.37L28.27,117.74z M25.86,116.35
		l-1.16,2.17c-0.26,0.49-0.53,0.91-0.79,1.31l0.02,0.02c0.43-0.24,0.88-0.48,1.35-0.7l2.25-1.02L25.86,116.35z"/>
	<path d="M25.18,110.37l-6.67,4.57l-0.64-0.94l1.91-4.45c0.44-1.03,0.88-1.9,1.35-2.68l-0.02-0.01c-0.84,0.69-1.64,1.26-2.68,1.98
		l-2.79,1.91l-0.56-0.81l6.67-4.57l0.6,0.87l-1.94,4.44c-0.42,0.97-0.88,1.94-1.37,2.77l0.03,0.02c0.81-0.63,1.6-1.19,2.71-1.95
		l2.85-1.95L25.18,110.37z"/>
	<path d="M19.37,100.94l-3.08,1.51l-3.05,4.35l-0.52-1.07l1.5-2.01c0.41-0.55,0.75-0.98,1.14-1.46l-0.01-0.02
		c-0.57,0.03-1.17,0.01-1.86,0l-2.52-0.06l-0.52-1.07l5.37,0.39l3.09-1.52L19.37,100.94z"/>
	<path d="M10.89,90.46c2.64-0.87,4.57,0.28,5.22,2.24c0.67,2.03-0.44,3.97-2.77,4.73c-2.44,0.8-4.53-0.19-5.21-2.24
		C7.45,93.09,8.61,91.21,10.89,90.46z M12.97,96.38c1.64-0.54,2.82-1.91,2.31-3.47c-0.52-1.57-2.26-1.99-4-1.42
		c-1.53,0.5-2.86,1.82-2.32,3.47C9.5,96.61,11.28,96.93,12.97,96.38z"/>
	<path d="M14.21,86.44L6.22,87.7l-0.18-1.13l3.64-3.2c0.84-0.74,1.61-1.34,2.37-1.85l-0.02-0.02c-1.05,0.26-2.02,0.44-3.27,0.64
		l-3.34,0.53L5.27,81.7l7.99-1.27l0.17,1.04l-3.65,3.18c-0.8,0.7-1.63,1.38-2.43,1.92l0.02,0.03c1-0.22,1.96-0.39,3.28-0.6
		l3.41-0.54L14.21,86.44z"/>
	<path d="M9.18,73.01l0.06,3.14l2.91-0.05l-0.06-3.5l0.88-0.02l0.08,4.55l-8.08,0.14l-0.08-4.37l0.88-0.02l0.06,3.32l2.55-0.05
		l-0.06-3.14L9.18,73.01z"/>
	<path d="M14.29,60c0.12,0.41,0.17,1.2-0.01,2.17c-0.41,2.24-2.14,3.67-4.74,3.19c-2.49-0.46-3.87-2.45-3.41-4.92
		c0.18-0.99,0.51-1.58,0.7-1.82l0.79,0.4c-0.26,0.35-0.5,0.88-0.62,1.54c-0.34,1.86,0.62,3.32,2.71,3.7
		c1.95,0.36,3.4-0.53,3.76-2.47c0.12-0.62,0.1-1.29-0.02-1.74L14.29,60z"/>
	<path d="M13.29,55.27l2.14,1.61l-0.35,1.02L8.31,52.7l0.41-1.19l8.55-0.01l-0.36,1.06h-2.69L13.29,55.27z M13.37,52.49l-2.46,0
		c-0.56,0-1.05-0.04-1.53-0.08l-0.01,0.02c0.42,0.27,0.84,0.55,1.26,0.86l1.96,1.5L13.37,52.49z"/>
	<path d="M18.33,49.06l-7.18-3.73l0.53-1.01l4.83-0.41c1.12-0.09,2.09-0.12,3-0.08l0-0.03c-1-0.41-1.89-0.85-3.01-1.43l-3-1.56
		l0.45-0.87l7.18,3.73l-0.49,0.94l-4.83,0.38c-1.06,0.08-2.13,0.14-3.09,0.1l-0.01,0.04c0.93,0.42,1.81,0.84,3,1.47l3.07,1.6
		L18.33,49.06z"/>
	<path d="M19.17,32.42c0.22-0.41,0.62-1.01,1.09-1.58c0.67-0.8,1.23-1.21,1.87-1.33c0.51-0.12,1.04-0.01,1.53,0.39
		c0.6,0.5,0.8,1.33,0.49,2.19l0.02,0.02c0.64-0.47,1.7-0.75,2.62,0.01c0.54,0.44,0.77,0.99,0.81,1.56c0.04,0.76-0.36,1.62-1.2,2.63
		c-0.46,0.55-0.85,0.95-1.11,1.19L19.17,32.42z M22.38,33.73l0.6-0.73c0.7-0.85,0.68-1.72,0.08-2.21c-0.73-0.6-1.48-0.29-2.15,0.52
		c-0.31,0.37-0.45,0.6-0.53,0.76L22.38,33.73z M25.36,36.21c0.16-0.13,0.36-0.36,0.6-0.64c0.69-0.83,1.02-1.85,0.12-2.6
		c-0.85-0.71-1.81-0.27-2.53,0.61l-0.55,0.66L25.36,36.21z"/>
	<path d="M31.08,25.87l-2.3,2.14l1.99,2.13l2.56-2.39l0.6,0.64l-3.33,3.1l-5.51-5.91l3.19-2.98l0.6,0.64l-2.43,2.27l1.74,1.87
		l2.3-2.14L31.08,25.87z"/>
	<path d="M39.29,21.29l0.61,2.61l-0.92,0.56l-1.86-8.34l1.08-0.66l6.56,5.48l-0.95,0.58l-2.06-1.72L39.29,21.29z M41.13,19.21
		l-1.89-1.58c-0.43-0.36-0.78-0.71-1.13-1.04l-0.02,0.01c0.15,0.47,0.29,0.96,0.41,1.46l0.54,2.41L41.13,19.21z"/>
	<path d="M47.1,19.78l-3.12-7.47l1.05-0.44L49,14.65c0.92,0.64,1.68,1.25,2.35,1.87l0.02-0.02c-0.5-0.96-0.91-1.86-1.39-3.02
		l-1.3-3.12l0.91-0.38l3.12,7.47l-0.97,0.41l-3.95-2.8c-0.87-0.61-1.72-1.26-2.44-1.91l-0.03,0.02c0.45,0.92,0.84,1.81,1.36,3.05
		L48,19.4L47.1,19.78z"/>
	<path d="M57.51,16.02l-0.86-3.33l-3.64-3.87l1.15-0.3l1.66,1.88c0.46,0.52,0.81,0.93,1.19,1.42l0.02-0.01
		c0.09-0.57,0.23-1.15,0.37-1.82L58,7.54l1.15-0.3l-1.47,5.18l0.86,3.34L57.51,16.02z"/>
	<path d="M68.32,6.96l-2.46,0.15l-0.05-0.89l5.98-0.37l0.05,0.89l-2.47,0.15l0.44,7.19l-1.05,0.06L68.32,6.96z"/>
	<path d="M76.31,5.96l-0.26,3.37l3.9,0.3l0.26-3.37l1.05,0.08l-0.62,8.06l-1.05-0.08l0.29-3.78l-3.9-0.3l-0.29,3.78l-1.04-0.08
		l0.62-8.06L76.31,5.96z"/>
	<path d="M86.49,7.25l-1.53,7.94l-1.02-0.2l1.53-7.94L86.49,7.25z"/>
	<path d="M88.26,15.88l2.45-7.71l1.09,0.35l1.23,4.69c0.29,1.09,0.47,2.04,0.59,2.95l0.03,0c0.24-1.06,0.51-2,0.89-3.21l1.02-3.23
		L96.5,10l-2.45,7.71l-1.01-0.32l-1.21-4.69c-0.27-1.03-0.5-2.07-0.62-3.03l-0.04,0c-0.25,0.99-0.52,1.93-0.93,3.21l-1.05,3.3
		L88.26,15.88z"/>
	<path d="M102.72,21.36c-0.49-0.06-1.44-0.22-2.42-0.71c-1.1-0.55-1.86-1.28-2.23-2.31c-0.32-0.91-0.23-2.07,0.33-3.2
		c1.09-2.15,3.36-2.99,5.78-1.78c0.84,0.42,1.4,0.93,1.64,1.23l-0.61,0.65c-0.3-0.36-0.71-0.75-1.45-1.11
		c-1.76-0.88-3.46-0.36-4.36,1.46c-0.92,1.84-0.35,3.47,1.34,4.31c0.61,0.31,1.07,0.43,1.34,0.43l1.08-2.16l-1.47-0.73l0.38-0.75
		l2.38,1.19L102.72,21.36z"/>
	<path d="M108.81,25.09c0.26-0.35,0.69-0.42,1.01-0.17c0.35,0.26,0.38,0.67,0.12,1.02c-0.25,0.34-0.67,0.43-1.01,0.17
		C108.59,25.85,108.56,25.42,108.81,25.09z M110.08,23.89l3.32-4.71l0.92,0.69l-3.59,4.51L110.08,23.89z"/>
</g>
</svg>
